<svg width="16" height="16" viewBox="0 0 16 16" fill="none" xmlns="http://www.w3.org/2000/svg">
<path fill-rule="evenodd" clip-rule="evenodd" d="M8 1C8.27614 1 8.5 1.22386 8.5 1.5L8.5 14.5C8.5 14.7761 8.27614 15 8 15C7.72386 15 7.5 14.7761 7.5 14.5L7.5 1.5C7.5 1.22386 7.72386 1 8 1Z" fill="#131318"/>
<path fill-rule="evenodd" clip-rule="evenodd" d="M15 8C15 8.27614 14.7761 8.5 14.5 8.5L1.5 8.5C1.22386 8.5 1 8.27614 1 8C1 7.72386 1.22386 7.5 1.5 7.5L14.5 7.5C14.7761 7.5 15 7.72386 15 8Z" fill="#131318"/>
</svg>
