<svg width="144" height="32" viewBox="0 0 144 32" fill="none" xmlns="http://www.w3.org/2000/svg">
<path d="M21.9323 0H3.55141L5.3751 6.39021H21.9563C23.684 6.39021 25.0998 7.83474 25.0998 9.59755V12.8049H9.40643C4.2233 12.8049 0 17.0895 0 22.4024C0 27.6909 4.1993 32 9.40643 32H21.9323C27.1155 32 31.3388 27.6909 31.3148 22.4024V22.378V9.59755C31.3148 4.30911 27.1155 0.0244835 21.9323 0ZM25.0518 22.329C25.0518 24.0918 23.6601 25.5363 21.9323 25.5363H9.40643C7.67872 25.4384 6.35894 23.8959 6.47892 22.1331C6.5749 20.5172 7.84669 19.2441 9.40643 19.1461H25.0518V22.329Z" fill="url(#paint0_linear_1987_379)"/>
<path d="M40.2893 12.8049H34.5782V19.1951H42.089L40.2893 12.8049Z" fill="#EC008C"/>
<path d="M63.1335 22.4268H60.3979V20.8844C59.4621 22.1085 57.9983 22.8186 56.4626 22.7696C52.9832 22.7696 50.1756 19.8805 50.1756 16.3304C50.1756 16.2325 50.1756 16.1346 50.1756 16.0366C50.0077 12.4865 52.6952 9.47503 56.1746 9.30365C56.2706 9.30365 56.3666 9.30365 56.4626 9.30365C57.9983 9.25468 59.4621 9.96471 60.3979 11.1889V9.62194H63.1335V22.4268ZM53.0072 16.0366C52.8392 18.1667 54.3989 20.0274 56.4866 20.1988C58.5742 20.3702 60.3979 18.7788 60.5659 16.6487C60.5899 16.4528 60.5899 16.2325 60.5659 16.0366C60.7339 13.9066 59.1741 12.0458 57.0865 11.8744C54.9988 11.703 53.1751 13.2945 53.0072 15.4245C52.9832 15.6204 52.9832 15.8163 53.0072 16.0366Z" fill="white"/>
<path d="M86.7215 14.3963V22.4514H83.986V15.3267C83.986 13.1721 82.9062 11.9724 81.0585 11.9724C79.3548 11.899 77.891 13.2456 77.819 14.9839C77.819 15.1063 77.819 15.2287 77.819 15.3512V22.4514H75.0595V15.3267C75.0595 13.1721 73.9797 11.9724 72.132 11.9724C70.4043 11.899 68.9645 13.2456 68.8925 15.0084C68.8925 15.1308 68.8925 15.2532 68.8925 15.3512V22.4514H66.157V9.64649H68.8685V11.2134C69.7564 9.94029 71.1961 9.23027 72.7319 9.30372C74.4596 9.23027 76.1153 10.1117 77.0751 11.5807C78.083 10.0382 79.8347 9.15682 81.6584 9.30372C84.3219 9.15682 86.6015 11.2379 86.7455 13.9556C86.7215 14.078 86.7215 14.2494 86.7215 14.3963Z" fill="white"/>
<path d="M118.012 16.0367C118.108 19.8316 115.133 22.99 111.413 23.0879C107.694 23.1859 104.599 20.1499 104.503 16.355C104.407 12.56 107.382 9.40164 111.101 9.3037C111.149 9.3037 111.197 9.3037 111.245 9.3037C114.845 9.1568 117.868 12.0459 117.988 15.6939C118.012 15.8163 118.012 15.9143 118.012 16.0367ZM107.262 16.0367C107.262 18.2647 109.014 20.052 111.197 20.052C113.381 20.052 115.133 18.2647 115.133 16.0367C115.133 13.8087 113.381 12.0214 111.197 12.0214C109.038 12.0214 107.262 13.8087 107.262 16.0367Z" fill="white"/>
<path d="M131.234 11.3848L129.482 13.2946C128.691 12.4621 127.611 11.9725 126.483 11.9725C124.419 11.9969 122.74 13.7108 122.764 15.8164C122.764 15.8898 122.764 15.9878 122.764 16.0612C122.62 18.1668 124.155 20.0031 126.219 20.15C126.291 20.15 126.387 20.15 126.459 20.15C127.611 20.1255 128.715 19.6358 129.53 18.8034L131.234 20.7376C130.034 22.0842 128.331 22.8431 126.555 22.7942C123.075 22.9411 120.1 20.1989 119.956 16.6243C119.956 16.4285 119.956 16.2326 119.956 16.0612C119.812 12.5111 122.5 9.47513 126.003 9.32823C126.195 9.32823 126.387 9.32823 126.555 9.32823C128.331 9.27926 130.034 10.0138 131.234 11.3848Z" fill="white"/>
<path d="M142.536 12.8294C141.36 12.1439 140.017 11.7522 138.649 11.7277C137.161 11.7277 136.273 12.3398 136.273 13.2456C136.273 14.1515 137.185 14.3964 138.337 14.5678L139.633 14.7636C142.368 15.1554 144 16.3551 144 18.5586C144 20.9825 141.888 22.7453 138.289 22.7453C136.393 22.7942 134.498 22.2066 132.938 21.1294L134.21 19.0238C135.385 19.9541 136.873 20.4193 138.361 20.3459C140.233 20.3459 141.216 19.7583 141.216 18.7789C141.216 18.0689 140.545 17.5548 139.033 17.3589L137.713 17.1875C134.93 16.7958 133.442 15.4737 133.442 13.417C133.442 10.8707 135.433 9.3038 138.625 9.3038C140.401 9.25483 142.176 9.72002 143.712 10.6504L142.536 12.8294Z" fill="white"/>
<path d="M99.2715 11.1644V6.51254L102.007 5.5332V22.4513H99.2715V20.9089C98.3356 22.1575 96.8479 22.8431 95.3121 22.7941C91.8327 22.7941 89.0252 19.905 89.0252 16.3549C89.0252 16.257 89.0252 16.1591 89.0252 16.0611C88.8572 12.511 91.5447 9.49954 95.0242 9.32815C95.1201 9.32815 95.2161 9.32815 95.3121 9.32815C96.8719 9.23022 98.3356 9.94024 99.2715 11.1644ZM91.8807 16.0366C91.7607 18.1667 93.3684 20.003 95.4561 20.1254C97.5437 20.2478 99.3434 18.6074 99.4634 16.4774C99.4634 16.3305 99.4634 16.1835 99.4634 16.0366C99.5834 13.9066 97.9757 12.0703 95.888 11.9479C93.8004 11.8255 92.0007 13.4659 91.8807 15.5959C91.8807 15.7428 91.8807 15.8897 91.8807 16.0366Z" fill="white"/>
<defs>
<linearGradient id="paint0_linear_1987_379" x1="-0.491054" y1="15.9951" x2="41.0507" y2="15.9951" gradientUnits="userSpaceOnUse">
<stop offset="0.02" stop-color="#FDB515"/>
<stop offset="0.1" stop-color="#FCA91D"/>
<stop offset="0.26" stop-color="#F98932"/>
<stop offset="0.47" stop-color="#F45454"/>
<stop offset="0.73" stop-color="#ED0D83"/>
<stop offset="0.77" stop-color="#EC008C"/>
</linearGradient>
</defs>
</svg>
