<svg width="17" height="16" viewBox="0 0 17 16" fill="none" xmlns="http://www.w3.org/2000/svg">
<path fill-rule="evenodd" clip-rule="evenodd" d="M8.5 1C8.77614 1 9 1.22386 9 1.5L9 14.5C9 14.7761 8.77614 15 8.5 15C8.22386 15 8 14.7761 8 14.5L8 1.5C8 1.22386 8.22386 1 8.5 1Z" fill="#131318"/>
<path fill-rule="evenodd" clip-rule="evenodd" d="M15.5 8C15.5 8.27614 15.2761 8.5 15 8.5L2 8.5C1.72386 8.5 1.5 8.27614 1.5 8C1.5 7.72386 1.72386 7.5 2 7.5L15 7.5C15.2761 7.5 15.5 7.72386 15.5 8Z" fill="#131318"/>
</svg>
