<svg width="10" height="10" viewBox="0 0 10 10" fill="none" xmlns="http://www.w3.org/2000/svg">
<path fill-rule="evenodd" clip-rule="evenodd" d="M9.00909 0.957003C8.84726 0.796655 8.58608 0.797858 8.42573 0.959689L5.00313 4.41396L1.58052 0.959689L1.52361 0.911696C1.36336 0.799585 1.14101 0.814472 0.997165 0.957003C0.835333 1.11735 0.834131 1.37853 0.994479 1.54036L4.42243 5.00002L0.994479 8.45969L0.947011 8.51704C0.836381 8.67832 0.853315 8.90052 0.997165 9.04305C1.159 9.20339 1.42017 9.20219 1.58052 9.04036L5.00313 5.58609L8.42573 9.04036L8.48264 9.08835C8.64289 9.20047 8.86524 9.18558 9.00909 9.04305C9.17092 8.8827 9.17212 8.62152 9.01177 8.45969L5.58382 5.00002L9.01177 1.54036L9.05924 1.48301C9.16987 1.32173 9.15294 1.09953 9.00909 0.957003Z" fill="#818394"/>
</svg>
