<svg width="12" height="14" viewBox="0 0 12 14" fill="none" xmlns="http://www.w3.org/2000/svg">
<path d="M2.22222 12.6436C2.11111 12.0981 2.05556 11.3345 2.22222 10.4617C2.72222 8.17083 4.55556 6.91628 5 6.64355C4.55556 6.37083 2.72222 5.11628 2.22222 2.82537C2.05556 1.95265 2.11111 1.18901 2.22222 0.643555M10 12.6436C10.1111 12.0981 10.1667 11.3345 10 10.4617C9.5 8.17083 7.66667 6.91628 7.22222 6.64355C7.66667 6.37083 9.5 5.11628 10 2.82537C10.1667 1.95265 10.1111 1.18901 10 0.643555M1 0.643555H11M1 12.6436H11M6.83333 4.18901C7.38889 3.91628 7.94444 3.37083 7.94444 2.55265" stroke="#818398" stroke-miterlimit="10" stroke-linecap="round" stroke-linejoin="round"/>
</svg>
