<svg width="12" height="12" viewBox="0 0 12 12" fill="none" xmlns="http://www.w3.org/2000/svg">
<path fill-rule="evenodd" clip-rule="evenodd" d="M11.3454 0.609256C11.1297 0.395459 10.7814 0.397062 10.5676 0.612837L6.00417 5.21853L1.4407 0.612837L1.36482 0.548846C1.15115 0.399365 0.854686 0.419214 0.662886 0.609256C0.447111 0.823053 0.445508 1.17129 0.659305 1.38707L5.22991 5.99995L0.659305 10.6128L0.596015 10.6893C0.448508 10.9043 0.471086 11.2006 0.662886 11.3906C0.878661 11.6044 1.2269 11.6028 1.4407 11.3871L6.00417 6.78137L10.5676 11.3871L10.6435 11.4511C10.8572 11.6005 11.1536 11.5807 11.3454 11.3906C11.5612 11.1768 11.5628 10.8286 11.349 10.6128L6.77843 5.99995L11.349 1.38707L11.4123 1.3106C11.5598 1.09556 11.5372 0.799298 11.3454 0.609256Z" fill="#131318"/>
</svg>
