<svg width="222" height="172" viewBox="0 0 222 172" fill="none" xmlns="http://www.w3.org/2000/svg">
<mask id="mask0_3158_23241" style="mask-type:alpha" maskUnits="userSpaceOnUse" x="21" y="27" width="179" height="145">
<path fill-rule="evenodd" clip-rule="evenodd" d="M21 27.2559H199.129V171.668H21V27.2559Z" fill="white"/>
</mask>
<g mask="url(#mask0_3158_23241)">
<path fill-rule="evenodd" clip-rule="evenodd" d="M138.532 103.467L138.309 103.43C145.302 104.635 151.507 104.411 157.536 103.764C162.39 103.242 166.9 101.14 170.337 97.8593L138.532 103.467ZM21.1171 150.683C18.8757 135.243 49.5976 135.779 46.1132 125.076C45.5082 123.22 43.5396 123.886 41.6321 124.731L41.2752 124.891C39.2615 125.803 37.4169 126.752 37.4484 124.925C37.5121 121.272 44.3926 121.392 44.0935 120.264C43.1708 116.783 30.3835 123.694 30.4897 117.618C30.595 111.541 44.6976 114.911 49.9919 113.289C66.9357 108.098 78.6559 103.408 84.4718 100.59C94.4502 95.7555 94.8359 84.7992 102.719 81.3071C102.732 81.302 102.744 81.296 102.756 81.291C99.7283 70.8274 99.4929 59.0656 102.755 49.9981C105.339 42.8108 109.709 38.3323 115.056 37.3891C115.781 37.2617 116.512 37.2014 117.244 37.2065L172.657 27.4362C177.932 26.5059 183.503 29.1959 188.342 35.0084C193.169 40.8039 196.541 48.8927 198.117 57.345L198.224 57.9356C199.753 66.6004 199.392 75.5965 196.781 82.8577C194.22 89.9753 189.903 94.408 184.629 95.3383L171.872 97.5882C167.826 101.602 162.143 104.529 157.058 105.021C150.884 105.618 144.158 105.271 137.035 103.986C136.943 103.97 136.872 103.846 136.841 103.764L129.217 105.109C128.71 105.298 128.193 105.453 127.665 105.572C127.547 106.482 127.541 107.398 127.647 108.319C127.825 109.856 128.132 111.421 128.447 112.945L128.564 113.514C129.543 118.243 130.422 122.498 127.369 124.227C124.815 125.672 104.341 127.827 93.6617 133.734C91.4297 134.968 89.7881 139.84 88.246 144.986L88.0319 145.705C87.9962 145.825 87.9605 145.946 87.9248 146.065L87.6054 147.147C85.7981 153.263 84.0351 159.104 81.4955 159.06C79.8599 159.031 79.8701 157.554 79.8641 156.03L79.8624 155.735C79.8446 153.967 79.6602 152.259 76.7042 152.813C74.3626 153.25 72.7304 157.717 70.8561 162.192L70.5578 162.898C68.7557 167.128 66.6927 171.176 63.56 171.625C59.8564 172.154 62.1071 167.78 64.5278 163.28L64.9178 162.556C66.691 159.261 68.3903 156.034 67.7438 154.753C66.1676 151.627 64.2958 153.192 63.001 153.628C61.3186 154.194 60.0629 162.138 51.2536 163.524C42.4435 164.912 34.0982 158.233 35.7635 154.345C39.3533 145.967 21.6949 154.665 21.1171 150.683V150.683Z" fill="#EDEDEF"/>
</g>
<path fill-rule="evenodd" clip-rule="evenodd" d="M199.74 46.4363C201.419 55.073 201.216 64.0743 198.731 71.3797C196.295 78.5414 192.057 83.0489 186.8 84.0702L129.031 95.3001L115.875 27.6172L173.644 16.3881C178.903 15.366 184.519 17.9575 189.459 23.685C194.501 29.5281 198.061 37.7995 199.74 46.4363" fill="white"/>
<path fill-rule="evenodd" clip-rule="evenodd" d="M117.006 28.3867L129.792 94.163L186.615 83.1174L186.933 83.0503C189.257 82.5261 191.363 81.2473 193.174 79.3033C195.08 77.2582 196.658 74.4781 197.819 71.0633C202.689 56.7424 198.613 35.7745 188.734 24.3211C186.378 21.5903 183.874 19.6038 181.34 18.4211C178.823 17.246 176.279 16.8654 173.829 17.3412L117.006 28.3867ZM115.676 27.4827L173.611 16.2213C176.274 15.7039 179.028 16.099 181.742 17.3514C184.44 18.5961 187.1 20.6897 189.588 23.5743C194.647 29.4378 198.222 37.7364 199.907 46.4037C201.591 55.0711 201.386 64.1038 198.893 71.4346C197.666 75.0414 195.984 77.9787 193.948 80.1436C191.985 82.2312 189.695 83.6026 187.163 84.1685L186.832 84.2373L128.896 95.4995L115.676 27.4827Z" fill="#0A0A3B"/>
<path d="M117.006 28.3867L116.968 28.1904L116.772 28.2286L116.81 28.4249L117.006 28.3867ZM129.792 94.163L129.596 94.2011L129.634 94.3975L129.83 94.3593L129.792 94.163ZM186.615 83.1174L186.653 83.3138L186.656 83.3131L186.615 83.1174ZM186.933 83.0503L186.974 83.246L186.977 83.2454L186.933 83.0503ZM193.174 79.3033L193.028 79.167L193.028 79.167L193.174 79.3033ZM197.819 71.0633L198.008 71.1277V71.1277L197.819 71.0633ZM188.734 24.3211L188.582 24.4517L188.582 24.4518L188.734 24.3211ZM181.34 18.4211L181.255 18.6023L181.255 18.6023L181.34 18.4211ZM173.829 17.3412L173.791 17.1448L173.791 17.1449L173.829 17.3412ZM115.676 27.4827L115.638 27.2864L115.441 27.3245L115.479 27.5209L115.676 27.4827ZM173.611 16.2213L173.573 16.025L173.573 16.025L173.611 16.2213ZM181.742 17.3514L181.658 17.533L181.658 17.533L181.742 17.3514ZM189.588 23.5743L189.436 23.7049L189.436 23.7049L189.588 23.5743ZM198.893 71.4346L199.082 71.499L199.082 71.499L198.893 71.4346ZM193.948 80.1436L193.802 80.0066L193.802 80.0066L193.948 80.1436ZM187.163 84.1685L187.204 84.3643L187.207 84.3636L187.163 84.1685ZM186.832 84.2373L186.87 84.4336L186.873 84.4331L186.832 84.2373ZM128.896 95.4995L128.7 95.5377L128.738 95.734L128.935 95.6958L128.896 95.4995ZM116.81 28.4249L129.596 94.2011L129.988 94.1248L117.203 28.3486L116.81 28.4249ZM129.83 94.3593L186.653 83.3138L186.576 82.9211L129.754 93.9667L129.83 94.3593ZM186.656 83.3131L186.974 83.246L186.892 82.8546L186.573 82.9217L186.656 83.3131ZM186.977 83.2454C189.346 82.7111 191.486 81.4088 193.32 79.4396L193.028 79.167C191.24 81.0859 189.168 82.341 186.889 82.8552L186.977 83.2454ZM193.32 79.4397C195.25 77.3692 196.84 74.5625 198.008 71.1277L197.63 70.9989C196.475 74.3938 194.91 77.1472 193.028 79.167L193.32 79.4397ZM198.008 71.1277C200.457 63.9263 200.654 55.0674 199.004 46.5787C197.354 38.09 193.853 29.9499 188.885 24.1905L188.582 24.4518C193.494 30.1457 196.971 38.2162 198.611 46.655C200.252 55.0939 200.051 63.8794 197.63 70.9989L198.008 71.1277ZM188.885 24.1905C186.516 21.4437 183.99 19.4372 181.424 18.2399L181.255 18.6023C183.758 19.7704 186.241 21.7369 188.582 24.4517L188.885 24.1905ZM181.424 18.2399C178.875 17.0496 176.288 16.6599 173.791 17.1448L173.867 17.5375C176.27 17.0709 178.771 17.4425 181.255 18.6023L181.424 18.2399ZM173.791 17.1449L116.968 28.1904L117.045 28.5831L173.867 17.5375L173.791 17.1449ZM115.714 27.679L173.65 16.4177L173.573 16.025L115.638 27.2864L115.714 27.679ZM173.65 16.4177C176.266 15.9092 178.977 16.2959 181.658 17.533L181.826 17.1698C179.079 15.9021 176.282 15.4986 173.573 16.025L173.65 16.4177ZM181.658 17.533C184.325 18.7632 186.962 20.8367 189.436 23.7049L189.739 23.4436C187.237 20.5427 184.556 18.4291 181.826 17.1698L181.658 17.533ZM189.436 23.7049C194.468 29.5357 198.03 37.7995 199.71 46.4419L200.103 46.3656C198.413 37.6732 194.827 29.3398 189.739 23.4436L189.436 23.7049ZM199.71 46.4419C201.39 55.0843 201.183 64.0803 198.704 71.3703L199.082 71.499C201.589 64.1273 201.793 55.0579 200.103 46.3656L199.71 46.4419ZM198.704 71.3702C197.484 74.9565 195.814 77.867 193.802 80.0066L194.094 80.2806C196.153 78.0904 197.848 75.1264 199.082 71.499L198.704 71.3702ZM193.802 80.0066C191.863 82.0689 189.607 83.4172 187.12 83.9733L187.207 84.3636C189.782 83.7879 192.107 82.3936 194.094 80.2806L193.802 80.0066ZM187.123 83.9726L186.791 84.0415L186.873 84.4331L187.204 84.3643L187.123 83.9726ZM186.794 84.041L128.858 95.3032L128.935 95.6958L186.87 84.4336L186.794 84.041ZM129.093 95.4613L115.872 27.4445L115.479 27.5209L128.7 95.5377L129.093 95.4613Z" fill="#0A0A3B"/>
<path fill-rule="evenodd" clip-rule="evenodd" d="M194.387 31.8385L194.234 31.0518L136.848 42.2069L137 42.9937L194.387 31.8385Z" fill="#0A0A3B"/>
<path fill-rule="evenodd" clip-rule="evenodd" d="M195.164 77.2109L195.317 77.9977L137.985 89.0866L137.832 88.3007L195.164 77.2109Z" fill="#0A0A3B"/>
<path fill-rule="evenodd" clip-rule="evenodd" d="M186.77 21.8L186.617 21.0132L129.231 32.1683L129.384 32.9551L186.77 21.8Z" fill="#0A0A3B"/>
<path fill-rule="evenodd" clip-rule="evenodd" d="M189.529 24.7033L189.376 23.9165L131.992 35.0717L132.145 35.8576L189.529 24.7033Z" fill="#0A0A3B"/>
<path fill-rule="evenodd" clip-rule="evenodd" d="M178.4 80.1361C175.597 87.1899 166.896 93.3763 159.402 94.2336C153.24 94.9371 146.508 94.7085 139.364 93.5479C139.225 93.5258 139.13 93.2599 139.151 93.2565C139.165 93.2531 139.657 93.1579 140.627 92.9693C147.64 94.0526 153.841 93.7204 159.858 92.9676C167.475 92.0134 174.173 87.1678 177.148 80.0426C180.038 73.1221 179.137 65.3767 174.738 59.3135C163.762 44.1845 140.128 36.8961 139.89 36.8239L140.23 35.6743C140.472 35.7474 164.484 43.1454 175.699 58.6083C177.677 61.3331 178.988 64.3834 179.603 67.5484C180.409 71.6964 180.026 76.045 178.4 80.1361" fill="#0A0A3B"/>
<path fill-rule="evenodd" clip-rule="evenodd" d="M178.4 80.1361C175.597 87.1899 166.896 93.3763 159.402 94.2336C153.24 94.9371 146.508 94.7085 139.364 93.5479C139.225 93.5258 139.13 93.2599 139.151 93.2565C139.165 93.2531 139.657 93.1579 140.627 92.9693C147.64 94.0526 153.841 93.7204 159.858 92.9676C167.475 92.0134 174.173 87.1678 177.148 80.0426C180.038 73.1221 179.137 65.3767 174.738 59.3135C163.762 44.1845 140.128 36.8961 139.89 36.8239L140.23 35.6743C140.472 35.7474 164.484 43.1454 175.699 58.6083C177.677 61.3331 178.988 64.3834 179.603 67.5484C180.409 71.6964 180.026 76.045 178.4 80.1361Z" stroke="#0A0A3B"/>
<mask id="mask1_3158_23241" style="mask-type:alpha" maskUnits="userSpaceOnUse" x="137" y="34" width="6" height="4">
<path fill-rule="evenodd" clip-rule="evenodd" d="M139.058 34.6456C137.962 34.858 137.669 35.7204 138.404 36.5726C139.138 37.4231 140.622 37.9389 141.716 37.7265C142.812 37.514 143.105 36.6508 142.373 35.8011C141.751 35.0789 140.589 34.5972 139.582 34.5972C139.402 34.5972 139.226 34.6125 139.058 34.6456Z" fill="white"/>
</mask>
<g mask="url(#mask1_3158_23241)">
<path fill-rule="evenodd" clip-rule="evenodd" d="M139.058 34.6456C137.962 34.858 137.669 35.7204 138.404 36.5726C139.138 37.4231 140.622 37.9389 141.716 37.7265C142.812 37.514 143.105 36.6508 142.373 35.8011C141.751 35.0789 140.589 34.5972 139.582 34.5972C139.402 34.5972 139.226 34.6125 139.058 34.6456Z" fill="url(#paint0_linear_3158_23241)"/>
</g>
<path fill-rule="evenodd" clip-rule="evenodd" d="M143.148 36.4534C143.193 36.6853 143.18 36.9156 143.107 37.1339C142.934 37.6369 142.469 37.9878 141.792 38.1195C140.555 38.36 138.934 37.795 138.104 36.8349C137.652 36.3106 137.498 35.7422 137.669 35.2375C137.84 34.7345 138.307 34.3827 138.982 34.2519C140.221 34.0106 141.842 34.5756 142.672 35.5383C142.929 35.8365 143.089 36.1483 143.148 36.4534ZM138.41 35.7677C138.443 35.9359 138.542 36.1228 138.703 36.3098C139.342 37.049 140.686 37.5188 141.64 37.3336C142.019 37.2597 142.281 37.0906 142.355 36.8714C142.43 36.6513 142.326 36.3582 142.073 36.0625C141.434 35.3216 140.088 34.8526 139.134 35.0378C138.755 35.1118 138.495 35.2808 138.421 35.4992C138.393 35.5816 138.391 35.6708 138.41 35.7677Z" fill="#0A0A3B"/>
<path fill-rule="evenodd" clip-rule="evenodd" d="M104.71 40.363C109.645 25.8475 121.767 23.4914 131.782 35.1011C141.795 46.7108 145.915 67.8886 140.977 82.4041C136.041 96.918 123.919 99.2741 113.905 87.6643C103.89 76.0572 99.7739 54.8786 104.71 40.363Z" fill="#F3F3F0"/>
<path fill-rule="evenodd" clip-rule="evenodd" d="M104.452 64.9586C106.09 73.3863 109.563 81.4581 114.482 87.1601C116.813 89.8629 119.288 91.8299 121.79 93.0015C124.274 94.1656 126.783 94.5437 129.197 94.0747C131.611 93.6048 133.796 92.315 135.664 90.3047C137.544 88.2817 139.102 85.5305 140.253 82.1514C145.101 67.8891 141.043 47.0104 131.203 35.6055C128.872 32.9036 126.396 30.9366 123.895 29.7649C121.411 28.6009 118.902 28.2228 116.489 28.6918C114.075 29.1608 111.89 30.4514 110.023 32.4609C108.142 34.4848 106.584 37.236 105.434 40.6142C103.01 47.7445 102.814 56.5291 104.452 64.9586ZM103.986 40.112C105.224 36.4704 106.925 33.5034 108.986 31.3164C111.058 29.1166 113.495 27.7028 116.194 27.1786C118.893 26.6535 121.682 27.0511 124.427 28.3146C127.158 29.5712 129.846 31.6843 132.358 34.5969C137.439 40.485 141.027 48.8176 142.719 57.5207C144.411 66.2229 144.205 75.293 141.701 82.6536C140.462 86.296 138.761 89.2622 136.699 91.4501C134.627 93.6498 132.19 95.0628 129.492 95.5879C126.792 96.1121 124.004 95.7145 121.258 94.4511C118.528 93.1953 115.839 91.0813 113.327 88.1687C103.168 76.3941 98.9771 54.8349 103.986 40.112Z" fill="#0A0A3B"/>
<path d="M104.452 64.9586L104.256 64.9967L104.256 64.9967L104.452 64.9586ZM114.482 87.1601L114.634 87.0295L114.634 87.0295L114.482 87.1601ZM121.79 93.0015L121.874 92.8204L121.874 92.8204L121.79 93.0015ZM129.197 94.0747L129.235 94.271L129.235 94.271L129.197 94.0747ZM135.664 90.3047L135.517 90.1686L135.517 90.1686L135.664 90.3047ZM140.253 82.1514L140.442 82.2159L140.442 82.2158L140.253 82.1514ZM131.203 35.6055L131.051 35.7361L131.051 35.7361L131.203 35.6055ZM123.895 29.7649L123.81 29.946L123.81 29.946L123.895 29.7649ZM116.489 28.6918L116.527 28.8881L116.527 28.8881L116.489 28.6918ZM110.023 32.4609L109.876 32.3247L109.876 32.3248L110.023 32.4609ZM105.434 40.6142L105.245 40.5498L105.245 40.5498L105.434 40.6142ZM103.986 40.112L104.175 40.1765L104.175 40.1764L103.986 40.112ZM108.986 31.3164L109.132 31.4536L109.132 31.4535L108.986 31.3164ZM116.194 27.1786L116.232 27.3749L116.232 27.3749L116.194 27.1786ZM124.427 28.3146L124.343 28.4962L124.343 28.4962L124.427 28.3146ZM132.358 34.5969L132.207 34.7276L132.207 34.7276L132.358 34.5969ZM142.719 57.5207L142.523 57.5588L142.523 57.5588L142.719 57.5207ZM141.701 82.6536L141.512 82.5891L141.512 82.5892L141.701 82.6536ZM136.699 91.4501L136.554 91.3129L136.554 91.3129L136.699 91.4501ZM129.492 95.5879L129.53 95.7842L129.53 95.7842L129.492 95.5879ZM121.258 94.4511L121.342 94.2694L121.342 94.2693L121.258 94.4511ZM113.327 88.1687L113.478 88.0381L113.478 88.038L113.327 88.1687ZM104.256 64.9967C105.899 73.4494 109.383 81.556 114.331 87.2908L114.634 87.0295C109.743 81.3602 106.282 73.3233 104.649 64.9204L104.256 64.9967ZM114.331 87.2908C116.675 90.0094 119.172 91.9963 121.705 93.1827L121.874 92.8204C119.404 91.6634 116.951 89.7164 114.634 87.0295L114.331 87.2908ZM121.705 93.1826C124.222 94.3619 126.774 94.7492 129.235 94.271L129.159 93.8783C126.792 94.3381 124.326 93.9692 121.874 92.8204L121.705 93.1826ZM129.235 94.271C131.696 93.7919 133.918 92.4775 135.81 90.4409L135.517 90.1686C133.674 92.1525 131.525 93.4177 129.159 93.8783L129.235 94.271ZM135.81 90.4409C137.714 88.3925 139.285 85.6147 140.442 82.2159L140.063 82.087C138.92 85.4463 137.374 88.1709 135.517 90.1686L135.81 90.4409ZM140.442 82.2158C142.88 75.0437 143.075 66.2218 141.432 57.7687C139.789 49.3157 136.302 41.21 131.354 35.4748L131.051 35.7361C135.943 41.4059 139.406 49.442 141.039 57.8451C142.673 66.2482 142.473 74.9968 140.063 82.087L140.442 82.2158ZM131.354 35.4748C129.01 32.757 126.513 30.7701 123.98 29.5838L123.81 29.946C126.28 31.103 128.735 33.0501 131.051 35.7361L131.354 35.4748ZM123.98 29.5838C121.463 28.4045 118.911 28.0172 116.45 28.4955L116.527 28.8881C118.892 28.4283 121.358 28.7972 123.81 29.946L123.98 29.5838ZM116.45 28.4955C113.989 28.9737 111.768 30.289 109.876 32.3247L110.169 32.597C112.012 30.6139 114.16 29.3479 116.527 28.8881L116.45 28.4955ZM109.876 32.3248C107.972 34.374 106.401 37.1517 105.245 40.5498L105.624 40.6786C106.767 37.3202 108.312 34.5956 110.169 32.597L109.876 32.3248ZM105.245 40.5498C102.806 47.7211 102.613 56.5424 104.256 64.9967L104.649 64.9204C103.015 56.5159 103.213 47.768 105.624 40.6786L105.245 40.5498ZM104.175 40.1764C105.406 36.5554 107.094 33.6153 109.132 31.4536L108.84 31.1792C106.755 33.3916 105.041 36.3854 103.796 40.0477L104.175 40.1764ZM109.132 31.4535C111.179 29.2803 113.579 27.8902 116.232 27.3749L116.156 26.9822C113.411 27.5154 110.938 28.9529 108.84 31.1793L109.132 31.4535ZM116.232 27.3749C118.885 26.8588 121.631 27.2481 124.343 28.4962L124.51 28.1329C121.732 26.8542 118.901 26.4482 116.155 26.9822L116.232 27.3749ZM124.343 28.4962C127.042 29.7383 129.709 31.8314 132.207 34.7276L132.51 34.4663C129.983 31.5372 127.273 29.404 124.51 28.1329L124.343 28.4962ZM132.207 34.7276C137.26 40.583 140.836 48.8808 142.523 57.5588L142.915 57.4825C141.219 48.7545 137.619 40.3871 132.51 34.4663L132.207 34.7276ZM142.523 57.5588C144.21 66.2361 144.002 75.2695 141.512 82.5891L141.891 82.718C144.408 75.3165 144.612 66.2097 142.915 57.4825L142.523 57.5588ZM141.512 82.5892C140.28 86.211 138.591 89.1503 136.554 91.3129L136.845 91.5872C138.93 89.3741 140.645 86.3811 141.891 82.718L141.512 82.5892ZM136.554 91.3129C134.506 93.4861 132.106 94.8755 129.453 95.3916L129.53 95.7842C132.274 95.2502 134.748 93.8136 136.845 91.5872L136.554 91.3129ZM129.454 95.3916C126.8 95.9069 124.054 95.5175 121.342 94.2694L121.175 94.6327C123.953 95.9115 126.784 96.3174 129.53 95.7842L129.454 95.3916ZM121.342 94.2693C118.643 93.0281 115.977 90.9342 113.478 88.0381L113.176 88.2993C115.702 91.2284 118.413 93.3624 121.175 94.6328L121.342 94.2693ZM113.478 88.038C108.427 82.1835 104.851 73.8849 103.165 65.2078C101.478 56.5308 101.685 47.497 104.175 40.1765L103.796 40.0476C101.278 47.45 101.076 56.5572 102.772 65.2841C104.468 74.0111 108.068 82.3793 113.176 88.2993L113.478 88.038Z" fill="#0A0A3B"/>
<path fill-rule="evenodd" clip-rule="evenodd" d="M107.351 43.8979C111.601 31.4028 122.035 29.3747 130.656 39.3675C139.277 49.3612 142.821 67.5931 138.571 80.0882C134.321 92.5824 123.887 94.6105 115.267 84.6177C106.645 74.6232 103.101 56.3929 107.351 43.8979Z" fill="#A3A3A3"/>
<path fill-rule="evenodd" clip-rule="evenodd" d="M120.614 77.1947C126.297 83.7838 132.767 85.1441 137.735 81.7293C138.057 81.0114 138.357 80.2518 138.633 79.4455C142.882 66.9512 139.339 48.7201 130.717 38.7256C125.034 32.1382 118.564 30.7762 113.597 34.1918C113.273 34.9115 112.972 35.6711 112.699 36.4766C108.449 48.9708 111.993 67.2019 120.614 77.1947Z" fill="#DFDFDF"/>
<path fill-rule="evenodd" clip-rule="evenodd" d="M139.698 58.1074C141.145 65.5522 140.97 73.3112 138.828 79.6097C136.725 85.7935 133.063 89.6867 128.516 90.5703C123.969 91.454 119.115 89.2168 114.848 84.271C106.158 74.1974 102.573 55.7539 106.857 43.1577C108.96 36.9739 112.622 33.0808 117.17 32.1971C121.717 31.3135 126.57 33.5506 130.837 38.4965C135.182 43.5324 138.251 50.6627 139.698 58.1074ZM106.756 64.5105C108.176 71.8133 111.184 78.806 115.447 83.7467C119.52 88.4657 124.107 90.6111 128.363 89.7844C132.62 88.9568 136.069 85.2489 138.077 79.348C142.278 66.994 138.764 48.9031 130.238 39.0207C126.166 34.3 121.578 32.1564 117.323 32.9839C113.066 33.8106 109.616 37.5168 107.608 43.4194C105.508 49.5956 105.337 57.2077 106.756 64.5105Z" fill="#0A0A3B"/>
<path fill-rule="evenodd" clip-rule="evenodd" d="M118.653 83.3277C110.031 73.3331 106.488 55.102 110.738 42.6078C112.541 37.3068 115.457 33.8946 118.876 32.4816C118.907 32.468 118.896 32.4196 118.862 32.4204C113.977 32.5445 109.626 36.2558 107.233 43.2884C102.984 55.7835 106.527 74.0146 115.148 84.0091C120.001 89.633 125.426 91.4444 130.002 89.7298C130.033 89.7162 130.026 89.6687 129.992 89.6678C126.292 89.6364 122.311 87.5666 118.653 83.3277Z" fill="#999A96"/>
<path fill-rule="evenodd" clip-rule="evenodd" d="M119.352 32.6873L119.028 32.8505C115.562 34.2855 112.825 37.7037 111.113 42.7388C106.912 55.0945 110.429 73.1846 118.952 83.0652L118.653 83.3278L118.952 83.0652C122.425 87.0901 126.243 89.2363 129.992 89.2669L130.326 89.2711L130.413 89.6263L130.467 89.956L130.139 90.1055C125.214 91.9518 119.639 89.8251 114.848 84.2709C106.158 74.1965 102.572 55.7538 106.857 43.1577C109.218 36.2134 113.591 32.1529 118.848 32.0203L119.178 32.0127L119.352 32.6873ZM106.756 64.5104C108.176 71.8132 111.184 78.8059 115.447 83.7467C119.378 88.3025 123.822 90.4496 127.919 89.854C124.625 89.2006 121.353 87.0654 118.353 83.5895C109.663 73.5159 106.077 55.0724 110.362 42.4762C111.84 38.1277 114.073 34.9253 116.883 33.085C112.861 34.0672 109.546 37.7232 107.608 43.4193C105.508 49.5955 105.337 57.2076 106.756 64.5104Z" fill="#0A0A3B"/>
<path fill-rule="evenodd" clip-rule="evenodd" d="M119.319 63.2151C119.548 64.2712 112.478 67.8432 104.657 71.472C96.8366 75.1001 96.642 86.0624 86.7494 91.0703C80.9837 93.9888 69.3467 98.882 52.4963 104.369C47.231 106.084 33.0723 102.96 33.0723 109.037C33.0723 115.115 45.7373 107.981 46.7204 111.446C47.039 112.569 40.1576 112.569 40.1576 116.223C40.1576 119.876 47.4698 112.299 48.8233 116.223C52.4946 126.862 21.7685 126.862 24.2783 142.261C24.9258 146.233 42.4296 137.227 38.9868 145.667C37.3894 149.583 45.8503 156.115 54.6341 154.575C63.4187 153.034 64.5351 145.07 66.2073 144.475C67.4945 144.017 69.3382 142.419 70.9687 145.516C72.6001 148.614 60.484 163.521 67.0799 162.458C73.6757 161.397 75.2281 144.378 79.8944 143.42C85.5412 142.261 81.1519 149.583 84.7944 149.583C89.7742 149.583 91.3758 127.01 96.5162 124.048C107.091 117.956 127.525 115.444 130.053 113.954C134.163 111.533 130.92 104.564 130.053 98.0434C129.543 94.2072 130.982 90.4279 134.369 86.7073C136.403 83.9136 137.764 81.504 138.453 79.4792C142.702 66.9825 139.158 48.7522 130.537 38.7585C128.442 36.3294 126.239 34.6156 124.043 33.585C122.393 35.3633 120.994 37.7772 119.961 40.8147C117.73 47.3749 117.646 55.5155 119.319 63.2151Z" fill="#EDEDEF"/>
<path fill-rule="evenodd" clip-rule="evenodd" d="M119.319 63.2151C119.548 64.2712 112.478 67.8432 104.657 71.472C96.8366 75.1001 96.642 86.0624 86.7494 91.0703C80.9837 93.9888 69.3467 98.882 52.4963 104.369C47.231 106.084 33.0723 102.96 33.0723 109.037C33.0723 115.115 45.7373 107.981 46.7204 111.446C47.039 112.569 40.1576 112.569 40.1576 116.223C40.1576 119.876 47.4698 112.299 48.8233 116.223C52.4946 126.862 21.7685 126.862 24.2783 142.261C24.9258 146.233 42.4296 137.227 38.9868 145.667C37.3894 149.583 45.8503 156.115 54.6341 154.575C63.4187 153.034 64.5351 145.07 66.2073 144.475C67.4945 144.017 69.3382 142.419 70.9687 145.516C72.6001 148.614 60.484 163.521 67.0799 162.458C73.6757 161.397 75.2281 144.378 79.8944 143.42C85.5412 142.261 81.1519 149.583 84.7944 149.583C89.7742 149.583 91.3758 127.01 96.5162 124.048C107.091 117.956 127.525 115.444 130.053 113.954C134.163 111.533 130.92 104.564 130.053 98.0434C129.543 94.2072 130.982 90.4279 134.369 86.7073C136.403 83.9136 137.764 81.504 138.453 79.4792C142.702 66.9825 139.158 48.7522 130.537 38.7585C128.442 36.3294 126.239 34.6156 124.043 33.585C122.393 35.3633 120.994 37.7772 119.961 40.8147C117.73 47.3749 117.646 55.5155 119.319 63.2151Z" stroke="#0A0A3B"/>
<path fill-rule="evenodd" clip-rule="evenodd" d="M119.979 63.7515C110.118 68.8154 103.872 73.1317 101.239 76.6994C93.7106 86.9046 93.1677 88.2505 87.599 91.0697C81.8332 93.9891 72.0775 100.056 55.227 105.542C49.9617 107.256 33.9219 106.501 33.9219 109.037C33.9219 111.573 48.2259 105.048 49.4281 110.436C49.6822 111.573 41.3912 113.298 41.3912 115.421C41.3912 117.544 52.8913 110.752 54.2448 114.676C57.6469 124.537 53.696 125.138 55.8057 126.502C57.9145 127.867 62.241 108.962 64.9123 106.736C66.8427 105.128 74.7632 99.7277 78.3258 99.7277C81.8885 99.7277 70.2949 108.852 72.8319 111.445C75.3699 114.038 95.1151 110.436 100.314 97.8482C102.111 93.4963 104.794 80.0538 107.311 75.0698C107.879 73.944 112.102 70.1715 119.979 63.7515Z" fill="#A3A3A3"/>
<path fill-rule="evenodd" clip-rule="evenodd" d="M125.666 70.4458C126.911 74.5411 132.862 83.149 129.138 84.3428C125.412 85.5366 117.203 101.627 107.312 106.636C106.032 107.284 96.5617 111.576 88.8774 119.16C85.6707 122.324 86.3853 128.547 82.3673 131.348C79.8327 133.114 71.908 130.546 69.5536 132.221C61.368 138.043 60.4631 144.023 52.1076 144.023C44.0409 144.023 44.0409 137.871 40.6941 137.871C28.5797 137.871 25.0315 139.244 24.7206 142.15C24.3467 145.629 39.7748 137.479 39.9447 144.023C39.994 145.886 38.4213 147.861 40.6941 149.789C43.3816 152.067 48.5297 154.302 52.9326 154.302C61.0604 154.302 64.188 144.618 65.8601 144.023C67.1465 143.565 69.8102 141.769 71.5146 145.353C73.219 148.937 62.3188 161.665 66.2076 162.069C70.0965 162.475 74.8206 140.045 79.5549 140.045C86.9809 140.045 81.3035 148.959 84.9451 148.959C89.925 148.959 90.9514 126.697 96.0918 123.735C106.667 117.643 127.143 115.151 129.672 113.66C133.782 111.239 130.24 104.407 129.672 97.8481C129.354 94.1767 130.418 90.8129 132.862 87.7584C135.486 84.3368 137.143 81.6137 137.832 79.589C142.081 67.0922 138.674 48.8126 130.053 38.8198C128.398 40.0833 125.92 41.3968 123.689 47.9562C121.457 54.5164 123.37 62.8966 125.666 70.4458Z" fill="#A3A3A3"/>
<defs>
<linearGradient id="paint0_linear_3158_23241" x1="137.904" y1="36.8185" x2="140.591" y2="39.2588" gradientUnits="userSpaceOnUse">
<stop stop-color="#F48C8A"/>
<stop offset="1" stop-color="#F2649E"/>
</linearGradient>
</defs>
</svg>
