<svg width="239" height="37" viewBox="0 0 239 37" fill="none" xmlns="http://www.w3.org/2000/svg">
<path d="M159.544 17.68H153V14.024H159.256V12.696H153V9.12H159.464V7.8H151.592V19H159.544V17.68ZM168.708 11.4H167.164L164.964 14.208L162.78 11.4H161.18L164.108 15.12L161.108 19H162.636L164.892 16.08L167.18 19H168.788L165.78 15.104L168.708 11.4ZM174.431 11.24C173.231 11.24 172.343 11.704 171.751 12.416V11.4H170.447V22.2H171.751V17.984C172.343 18.696 173.231 19.16 174.431 19.16C176.559 19.16 178.231 17.496 178.231 15.2C178.231 12.904 176.559 11.24 174.431 11.24ZM174.279 12.472C175.831 12.472 176.887 13.688 176.887 15.2C176.887 16.712 175.855 17.936 174.279 17.936C172.743 17.936 171.671 16.76 171.671 15.2C171.671 13.648 172.743 12.472 174.279 12.472ZM183.615 11.24C181.431 11.24 179.839 12.864 179.839 15.2C179.839 17.568 181.439 19.16 183.695 19.16C184.815 19.16 185.871 18.888 186.815 18.008L186.119 17.112C185.471 17.672 184.663 18.016 183.775 18.016C182.471 18.016 181.375 17.24 181.191 15.664H187.167C187.175 15.52 187.191 15.344 187.191 15.176C187.175 12.848 185.687 11.24 183.615 11.24ZM183.591 12.4C184.823 12.4 185.695 13.264 185.855 14.608H181.207C181.407 13.312 182.247 12.4 183.591 12.4ZM192.896 11.24C191.992 11.24 191.2 11.656 190.672 12.4V11.4H189.384V19H190.688V14.768C190.688 13.368 191.504 12.48 192.664 12.48C193.096 12.48 193.608 12.584 193.968 12.776L194.288 11.488C193.88 11.312 193.44 11.24 192.896 11.24ZM201.403 11.4H198.211V9.016H196.899V11.4H195.275V12.592H196.899V16.32C196.899 18.256 197.883 19.16 199.531 19.16C200.467 19.16 201.227 18.832 201.811 18.408L201.195 17.424C200.763 17.72 200.203 17.936 199.643 17.936C198.819 17.936 198.211 17.44 198.211 16.296V12.592H201.403V11.4ZM209.391 7.8H207.983V19H209.391V14.024H215.999V19H217.407V7.8H215.999V12.696H209.391V7.8ZM227.24 11.4H225.928V15.696C225.928 17.248 225.008 17.936 223.776 17.936C222.536 17.936 221.616 17.248 221.616 15.696V11.4H220.304V15.816C220.304 18.112 221.944 19.16 223.776 19.16C225.592 19.16 227.24 18.112 227.24 15.816V11.4ZM233.915 11.24C232.715 11.24 231.827 11.704 231.235 12.416V7.48H229.931V19H231.235V17.984C231.827 18.696 232.715 19.16 233.915 19.16C236.043 19.16 237.715 17.496 237.715 15.2C237.715 12.904 236.043 11.24 233.915 11.24ZM233.763 12.472C235.315 12.472 236.371 13.688 236.371 15.2C236.371 16.712 235.339 17.936 233.763 17.936C232.227 17.936 231.155 16.76 231.155 15.2C231.155 13.648 232.227 12.472 233.763 12.472Z" fill="#CDCDD6"/>
<path fill-rule="evenodd" clip-rule="evenodd" d="M15.6231 10H2.51787L3.80881 14.3991H15.6231C16.8544 14.3991 17.8563 15.3859 17.8563 16.5999V18.8001H6.6965C3.00329 18.8001 0 21.7604 0 25.3994C0 29.0385 3.00329 32 6.6965 32H15.6231C19.3157 32 22.3202 29.0385 22.3202 25.3994V20.9997V18.8001V16.5999C22.3202 12.9603 19.3157 10 15.6231 10ZM17.8563 25.3994C17.8563 26.6116 16.8544 27.5996 15.6231 27.5996H6.6965C5.46523 27.5996 4.46392 26.6116 4.46392 25.3994C4.46392 24.1867 5.46523 23.1993 6.6965 23.1993H17.8563V25.3994ZM24.6386 18.8005H28.7078L30 23.1996H24.6386V18.8005Z" fill="url(#paint0_linear_13102_29950)"/>
<path d="M43.29 6.4L48.465 19H46.917L45.486 15.49H39.249L37.827 19H36.324L41.499 6.4H43.29ZM42.372 7.831L39.807 14.122H44.937L42.372 7.831ZM60.9829 10.306C62.0449 10.306 62.9029 10.618 63.5569 11.242C64.2169 11.866 64.5469 12.691 64.5469 13.717V19H63.2059V14.158C63.2059 13.348 62.9899 12.718 62.5579 12.268C62.1259 11.812 61.5199 11.584 60.7399 11.584C60.0019 11.584 59.3809 11.824 58.8769 12.304C58.3789 12.778 58.1299 13.408 58.1299 14.194V19H56.7889V14.158C56.7889 13.348 56.5729 12.718 56.1409 12.268C55.7149 11.812 55.1119 11.584 54.3319 11.584C53.5939 11.584 52.9729 11.824 52.4689 12.304C51.9709 12.778 51.7219 13.408 51.7219 14.194V19H50.3719V10.477H51.7039V11.692C52.0279 11.212 52.4449 10.861 52.9549 10.639C53.4649 10.417 54.0049 10.306 54.5749 10.306C55.3129 10.306 55.9609 10.465 56.5189 10.783C57.0769 11.095 57.4939 11.533 57.7699 12.097C58.0879 11.479 58.5349 11.026 59.1109 10.738C59.6929 10.45 60.3169 10.306 60.9829 10.306ZM71.2074 10.306C72.5334 10.306 73.5714 10.786 74.3214 11.746V6.04H75.6624V19H74.3214V17.731C73.5774 18.691 72.5394 19.171 71.2074 19.171C70.0014 19.171 68.9904 18.751 68.1744 17.911C67.3584 17.065 66.9504 16.006 66.9504 14.734C66.9504 13.462 67.3584 12.406 68.1744 11.566C68.9904 10.726 70.0014 10.306 71.2074 10.306ZM71.3694 11.566C70.4694 11.566 69.7344 11.872 69.1644 12.484C68.6004 13.09 68.3184 13.84 68.3184 14.734C68.3184 15.628 68.6034 16.381 69.1734 16.993C69.7434 17.605 70.4754 17.911 71.3694 17.911C72.2514 17.911 72.9774 17.611 73.5474 17.011C74.1174 16.405 74.4024 15.646 74.4024 14.734C74.4024 13.828 74.1174 13.075 73.5474 12.475C72.9774 11.869 72.2514 11.566 71.3694 11.566ZM82.6473 10.306C83.9313 10.306 84.9993 10.729 85.8513 11.575C86.7093 12.421 87.1383 13.474 87.1383 14.734C87.1383 16 86.7093 17.056 85.8513 17.902C84.9993 18.748 83.9313 19.171 82.6473 19.171C81.3633 19.171 80.2953 18.748 79.4433 17.902C78.5913 17.056 78.1653 16 78.1653 14.734C78.1653 13.474 78.5913 12.421 79.4433 11.575C80.3013 10.729 81.3693 10.306 82.6473 10.306ZM84.8703 12.466C84.2763 11.866 83.5353 11.566 82.6473 11.566C81.7593 11.566 81.0183 11.866 80.4243 12.466C79.8303 13.066 79.5333 13.822 79.5333 14.734C79.5333 15.652 79.8303 16.411 80.4243 17.011C81.0183 17.611 81.7593 17.911 82.6473 17.911C83.5353 17.911 84.2763 17.611 84.8703 17.011C85.4643 16.411 85.7613 15.652 85.7613 14.734C85.7613 13.822 85.4643 13.066 84.8703 12.466ZM93.4034 10.306C94.0394 10.306 94.6304 10.423 95.1764 10.657C95.7224 10.885 96.1844 11.215 96.5624 11.647L95.6984 12.556C95.0204 11.896 94.2434 11.566 93.3674 11.566C92.5094 11.566 91.7924 11.866 91.2164 12.466C90.6464 13.066 90.3614 13.822 90.3614 14.734C90.3614 15.652 90.6464 16.411 91.2164 17.011C91.7924 17.611 92.5094 17.911 93.3674 17.911C94.2554 17.911 95.0414 17.578 95.7254 16.912L96.5624 17.83C96.1784 18.262 95.7134 18.595 95.1674 18.829C94.6214 19.057 94.0334 19.171 93.4034 19.171C92.1074 19.171 91.0484 18.751 90.2264 17.911C89.4044 17.071 88.9934 16.012 88.9934 14.734C88.9934 13.462 89.4044 12.406 90.2264 11.566C91.0484 10.726 92.1074 10.306 93.4034 10.306ZM105.161 11.242L104.576 12.286C104.264 12.07 103.853 11.884 103.343 11.728C102.839 11.566 102.32 11.485 101.786 11.485C101.174 11.485 100.685 11.605 100.319 11.845C99.9533 12.085 99.7703 12.412 99.7703 12.826C99.7703 13.486 100.349 13.885 101.507 14.023L102.515 14.149C104.423 14.395 105.377 15.187 105.377 16.525C105.377 17.335 105.038 17.977 104.36 18.451C103.682 18.925 102.77 19.162 101.624 19.162C100.214 19.162 99.0293 18.799 98.0693 18.073L98.6903 17.065C99.4823 17.683 100.466 17.992 101.642 17.992C102.374 17.992 102.947 17.875 103.361 17.641C103.781 17.401 103.991 17.059 103.991 16.615C103.991 15.931 103.397 15.517 102.209 15.373L101.192 15.256C100.25 15.142 99.5453 14.884 99.0773 14.482C98.6093 14.074 98.3753 13.546 98.3753 12.898C98.3753 12.1 98.6843 11.47 99.3023 11.008C99.9203 10.546 100.745 10.315 101.777 10.315C102.431 10.315 103.052 10.399 103.64 10.567C104.228 10.735 104.735 10.96 105.161 11.242Z" fill="white"/>
<path d="M124.141 6.4V13.969C124.141 15.103 123.91 16.069 123.448 16.867C122.986 17.665 122.35 18.259 121.54 18.649C120.736 19.033 119.794 19.225 118.714 19.225C117.634 19.225 116.689 19.033 115.879 18.649C115.075 18.259 114.442 17.665 113.98 16.867C113.518 16.069 113.287 15.103 113.287 13.969V6.4H115.807V13.843C115.807 14.845 116.065 15.592 116.581 16.084C117.097 16.576 117.808 16.822 118.714 16.822C119.62 16.822 120.331 16.576 120.847 16.084C121.363 15.592 121.621 14.845 121.621 13.843V6.4H124.141Z" fill="url(#paint1_linear_13102_29950)"/>
<path d="M37.05 33V26H40.19C40.9967 26 41.6167 26.1633 42.05 26.49C42.4833 26.81 42.7 27.25 42.7 27.81C42.7 28.19 42.6133 28.51 42.44 28.77C42.2733 29.03 42.0467 29.23 41.76 29.37C41.4733 29.51 41.1633 29.58 40.83 29.58L41.01 29.28C41.41 29.28 41.7633 29.35 42.07 29.49C42.3767 29.63 42.62 29.8367 42.8 30.11C42.98 30.3767 43.07 30.71 43.07 31.11C43.07 31.71 42.8433 32.1767 42.39 32.51C41.9433 32.8367 41.2767 33 40.39 33H37.05ZM38.05 32.19H40.35C40.9033 32.19 41.3267 32.0967 41.62 31.91C41.9133 31.7233 42.06 31.43 42.06 31.03C42.06 30.6233 41.9133 30.3267 41.62 30.14C41.3267 29.9533 40.9033 29.86 40.35 29.86H37.96V29.05H40.1C40.6067 29.05 41 28.9567 41.28 28.77C41.56 28.5833 41.7 28.3033 41.7 27.93C41.7 27.5567 41.56 27.2767 41.28 27.09C41 26.9033 40.6067 26.81 40.1 26.81H38.05V32.19ZM44.7084 35C44.455 35 44.2084 34.9567 43.9684 34.87C43.7284 34.79 43.5217 34.67 43.3484 34.51L43.7584 33.79C43.8917 33.9167 44.0384 34.0133 44.1984 34.08C44.3584 34.1467 44.5284 34.18 44.7084 34.18C44.9417 34.18 45.135 34.12 45.2884 34C45.4417 33.88 45.585 33.6667 45.7184 33.36L46.0484 32.63L46.1484 32.51L48.2284 27.7H49.1684L46.5984 33.53C46.445 33.9033 46.2717 34.1967 46.0784 34.41C45.8917 34.6233 45.685 34.7733 45.4584 34.86C45.2317 34.9533 44.9817 35 44.7084 35ZM45.9684 33.17L43.5484 27.7H44.5484L46.6084 32.42L45.9684 33.17ZM51.8298 33L54.9998 26H55.9898L59.1698 33H58.1198L55.2898 26.56H55.6898L52.8598 33H51.8298ZM53.1798 31.25L53.4498 30.45H57.3898L57.6798 31.25H53.1798ZM66.7041 27.65C67.1307 27.65 67.5074 27.7333 67.8341 27.9C68.1607 28.0667 68.4141 28.32 68.5941 28.66C68.7807 29 68.8741 29.43 68.8741 29.95V33H67.9141V30.06C67.9141 29.5467 67.7941 29.16 67.5541 28.9C67.3141 28.64 66.9774 28.51 66.5441 28.51C66.2241 28.51 65.9441 28.5767 65.7041 28.71C65.4641 28.8433 65.2774 29.04 65.1441 29.3C65.0174 29.56 64.9541 29.8833 64.9541 30.27V33H63.9941V30.06C63.9941 29.5467 63.8741 29.16 63.6341 28.9C63.4007 28.64 63.0641 28.51 62.6241 28.51C62.3107 28.51 62.0341 28.5767 61.7941 28.71C61.5541 28.8433 61.3674 29.04 61.2341 29.3C61.1007 29.56 61.0341 29.8833 61.0341 30.27V33H60.0741V27.7H60.9941V29.11L60.8441 28.75C61.0107 28.4033 61.2674 28.1333 61.6141 27.94C61.9607 27.7467 62.3641 27.65 62.8241 27.65C63.3307 27.65 63.7674 27.7767 64.1341 28.03C64.5007 28.2767 64.7407 28.6533 64.8541 29.16L64.4641 29C64.6241 28.5933 64.9041 28.2667 65.3041 28.02C65.7041 27.7733 66.1707 27.65 66.7041 27.65ZM72.8305 33.06C72.3171 33.06 71.8571 32.9467 71.4505 32.72C71.0505 32.4933 70.7338 32.1767 70.5005 31.77C70.2671 31.3633 70.1505 30.89 70.1505 30.35C70.1505 29.81 70.2671 29.34 70.5005 28.94C70.7338 28.5333 71.0505 28.2167 71.4505 27.99C71.8571 27.7633 72.3171 27.65 72.8305 27.65C73.2771 27.65 73.6805 27.75 74.0405 27.95C74.4005 28.15 74.6871 28.45 74.9005 28.85C75.1205 29.25 75.2305 29.75 75.2305 30.35C75.2305 30.95 75.1238 31.45 74.9105 31.85C74.7038 32.25 74.4205 32.5533 74.0605 32.76C73.7005 32.96 73.2905 33.06 72.8305 33.06ZM72.9105 32.22C73.2438 32.22 73.5438 32.1433 73.8105 31.99C74.0838 31.8367 74.2971 31.62 74.4505 31.34C74.6105 31.0533 74.6905 30.7233 74.6905 30.35C74.6905 29.97 74.6105 29.6433 74.4505 29.37C74.2971 29.09 74.0838 28.8733 73.8105 28.72C73.5438 28.5667 73.2438 28.49 72.9105 28.49C72.5705 28.49 72.2671 28.5667 72.0005 28.72C71.7338 28.8733 71.5205 29.09 71.3605 29.37C71.2005 29.6433 71.1205 29.97 71.1205 30.35C71.1205 30.7233 71.2005 31.0533 71.3605 31.34C71.5205 31.62 71.7338 31.8367 72.0005 31.99C72.2671 32.1433 72.5705 32.22 72.9105 32.22ZM74.7205 33V31.57L74.7805 30.34L74.6805 29.11V25.58H75.6405V33H74.7205ZM79.7269 33.06C79.1935 33.06 78.7202 32.9433 78.3069 32.71C77.8935 32.4767 77.5669 32.1567 77.3269 31.75C77.0869 31.3367 76.9669 30.87 76.9669 30.35C76.9669 29.8233 77.0869 29.3567 77.3269 28.95C77.5669 28.5433 77.8935 28.2267 78.3069 28C78.7202 27.7667 79.1935 27.65 79.7269 27.65C80.2535 27.65 80.7235 27.7667 81.1369 28C81.5569 28.2267 81.8835 28.5433 82.1169 28.95C82.3569 29.35 82.4769 29.8167 82.4769 30.35C82.4769 30.8767 82.3569 31.3433 82.1169 31.75C81.8835 32.1567 81.5569 32.4767 81.1369 32.71C80.7235 32.9433 80.2535 33.06 79.7269 33.06ZM79.7269 32.22C80.0669 32.22 80.3702 32.1433 80.6369 31.99C80.9102 31.8367 81.1235 31.62 81.2769 31.34C81.4302 31.0533 81.5069 30.7233 81.5069 30.35C81.5069 29.97 81.4302 29.6433 81.2769 29.37C81.1235 29.09 80.9102 28.8733 80.6369 28.72C80.3702 28.5667 80.0669 28.49 79.7269 28.49C79.3869 28.49 79.0835 28.5667 78.8169 28.72C78.5502 28.8733 78.3369 29.09 78.1769 29.37C78.0169 29.6433 77.9369 29.97 77.9369 30.35C77.9369 30.7233 78.0169 31.0533 78.1769 31.34C78.3369 31.62 78.5502 31.8367 78.8169 31.99C79.0835 32.1433 79.3869 32.22 79.7269 32.22ZM86.1145 33.06C85.5745 33.06 85.0912 32.9433 84.6645 32.71C84.2445 32.4767 83.9145 32.1567 83.6745 31.75C83.4345 31.3433 83.3145 30.8767 83.3145 30.35C83.3145 29.8233 83.4345 29.3567 83.6745 28.95C83.9145 28.5433 84.2445 28.2267 84.6645 28C85.0912 27.7667 85.5745 27.65 86.1145 27.65C86.5945 27.65 87.0212 27.7467 87.3945 27.94C87.7745 28.1267 88.0679 28.4067 88.2745 28.78L87.5445 29.25C87.3712 28.99 87.1579 28.8 86.9045 28.68C86.6579 28.5533 86.3912 28.49 86.1045 28.49C85.7579 28.49 85.4479 28.5667 85.1745 28.72C84.9012 28.8733 84.6845 29.09 84.5245 29.37C84.3645 29.6433 84.2845 29.97 84.2845 30.35C84.2845 30.73 84.3645 31.06 84.5245 31.34C84.6845 31.62 84.9012 31.8367 85.1745 31.99C85.4479 32.1433 85.7579 32.22 86.1045 32.22C86.3912 32.22 86.6579 32.16 86.9045 32.04C87.1579 31.9133 87.3712 31.72 87.5445 31.46L88.2745 31.92C88.0679 32.2867 87.7745 32.57 87.3945 32.77C87.0212 32.9633 86.5945 33.06 86.1145 33.06ZM91.0374 33.06C90.5974 33.06 90.1774 33 89.7774 32.88C89.3841 32.76 89.0741 32.6133 88.8474 32.44L89.2474 31.68C89.4741 31.8333 89.7541 31.9633 90.0874 32.07C90.4208 32.1767 90.7608 32.23 91.1074 32.23C91.5541 32.23 91.8741 32.1667 92.0674 32.04C92.2674 31.9133 92.3674 31.7367 92.3674 31.51C92.3674 31.3433 92.3074 31.2133 92.1874 31.12C92.0674 31.0267 91.9074 30.9567 91.7074 30.91C91.5141 30.8633 91.2974 30.8233 91.0574 30.79C90.8174 30.75 90.5774 30.7033 90.3374 30.65C90.0974 30.59 89.8774 30.51 89.6774 30.41C89.4774 30.3033 89.3174 30.16 89.1974 29.98C89.0774 29.7933 89.0174 29.5467 89.0174 29.24C89.0174 28.92 89.1074 28.64 89.2874 28.4C89.4674 28.16 89.7208 27.9767 90.0474 27.85C90.3808 27.7167 90.7741 27.65 91.2274 27.65C91.5741 27.65 91.9241 27.6933 92.2774 27.78C92.6374 27.86 92.9308 27.9767 93.1574 28.13L92.7474 28.89C92.5074 28.73 92.2574 28.62 91.9974 28.56C91.7374 28.5 91.4774 28.47 91.2174 28.47C90.7974 28.47 90.4841 28.54 90.2774 28.68C90.0708 28.8133 89.9674 28.9867 89.9674 29.2C89.9674 29.38 90.0274 29.52 90.1474 29.62C90.2741 29.7133 90.4341 29.7867 90.6274 29.84C90.8274 29.8933 91.0474 29.94 91.2874 29.98C91.5274 30.0133 91.7674 30.06 92.0074 30.12C92.2474 30.1733 92.4641 30.25 92.6574 30.35C92.8574 30.45 93.0174 30.59 93.1374 30.77C93.2641 30.95 93.3274 31.19 93.3274 31.49C93.3274 31.81 93.2341 32.0867 93.0474 32.32C92.8608 32.5533 92.5974 32.7367 92.2574 32.87C91.9174 32.9967 91.5108 33.06 91.0374 33.06ZM97.3527 33V26H98.3527V32.13H102.143V33H97.3527ZM105.442 33.06C104.875 33.06 104.375 32.9433 103.942 32.71C103.515 32.4767 103.182 32.1567 102.942 31.75C102.709 31.3433 102.592 30.8767 102.592 30.35C102.592 29.8233 102.705 29.3567 102.932 28.95C103.165 28.5433 103.482 28.2267 103.882 28C104.289 27.7667 104.745 27.65 105.252 27.65C105.765 27.65 106.219 27.7633 106.612 27.99C107.005 28.2167 107.312 28.5367 107.532 28.95C107.759 29.3567 107.872 29.8333 107.872 30.38C107.872 30.42 107.869 30.4667 107.862 30.52C107.862 30.5733 107.859 30.6233 107.852 30.67H103.342V29.98H107.352L106.962 30.22C106.969 29.88 106.899 29.5767 106.752 29.31C106.605 29.0433 106.402 28.8367 106.142 28.69C105.889 28.5367 105.592 28.46 105.252 28.46C104.919 28.46 104.622 28.5367 104.362 28.69C104.102 28.8367 103.899 29.0467 103.752 29.32C103.605 29.5867 103.532 29.8933 103.532 30.24V30.4C103.532 30.7533 103.612 31.07 103.772 31.35C103.939 31.6233 104.169 31.8367 104.462 31.99C104.755 32.1433 105.092 32.22 105.472 32.22C105.785 32.22 106.069 32.1667 106.322 32.06C106.582 31.9533 106.809 31.7933 107.002 31.58L107.532 32.2C107.292 32.48 106.992 32.6933 106.632 32.84C106.279 32.9867 105.882 33.06 105.442 33.06ZM112.348 33V31.88L112.298 31.67V29.76C112.298 29.3533 112.178 29.04 111.938 28.82C111.705 28.5933 111.352 28.48 110.878 28.48C110.565 28.48 110.258 28.5333 109.958 28.64C109.658 28.74 109.405 28.8767 109.198 29.05L108.798 28.33C109.072 28.11 109.398 27.9433 109.778 27.83C110.165 27.71 110.568 27.65 110.988 27.65C111.715 27.65 112.275 27.8267 112.668 28.18C113.062 28.5333 113.258 29.0733 113.258 29.8V33H112.348ZM110.608 33.06C110.215 33.06 109.868 32.9933 109.568 32.86C109.275 32.7267 109.048 32.5433 108.888 32.31C108.728 32.07 108.648 31.8 108.648 31.5C108.648 31.2133 108.715 30.9533 108.848 30.72C108.988 30.4867 109.212 30.3 109.518 30.16C109.832 30.02 110.252 29.95 110.778 29.95H112.458V30.64H110.818C110.338 30.64 110.015 30.72 109.848 30.88C109.682 31.04 109.598 31.2333 109.598 31.46C109.598 31.72 109.702 31.93 109.908 32.09C110.115 32.2433 110.402 32.32 110.768 32.32C111.128 32.32 111.442 32.24 111.708 32.08C111.982 31.92 112.178 31.6867 112.298 31.38L112.488 32.04C112.362 32.3533 112.138 32.6033 111.818 32.79C111.498 32.97 111.095 33.06 110.608 33.06ZM115.035 33V27.7H115.955V29.14L115.865 28.78C116.012 28.4133 116.258 28.1333 116.605 27.94C116.952 27.7467 117.378 27.65 117.885 27.65V28.58C117.845 28.5733 117.805 28.57 117.765 28.57C117.732 28.57 117.698 28.57 117.665 28.57C117.152 28.57 116.745 28.7233 116.445 29.03C116.145 29.3367 115.995 29.78 115.995 30.36V33H115.035ZM121.898 27.65C122.332 27.65 122.712 27.7333 123.038 27.9C123.372 28.0667 123.632 28.32 123.818 28.66C124.005 29 124.098 29.43 124.098 29.95V33H123.138V30.06C123.138 29.5467 123.012 29.16 122.758 28.9C122.512 28.64 122.162 28.51 121.708 28.51C121.368 28.51 121.072 28.5767 120.818 28.71C120.565 28.8433 120.368 29.04 120.228 29.3C120.095 29.56 120.028 29.8833 120.028 30.27V33H119.068V27.7H119.988V29.13L119.838 28.75C120.012 28.4033 120.278 28.1333 120.638 27.94C120.998 27.7467 121.418 27.65 121.898 27.65ZM125.875 33V27.7H126.835V33H125.875ZM126.355 26.68C126.168 26.68 126.012 26.62 125.885 26.5C125.765 26.38 125.705 26.2333 125.705 26.06C125.705 25.88 125.765 25.73 125.885 25.61C126.012 25.49 126.168 25.43 126.355 25.43C126.542 25.43 126.695 25.49 126.815 25.61C126.942 25.7233 127.005 25.8667 127.005 26.04C127.005 26.22 126.945 26.3733 126.825 26.5C126.705 26.62 126.548 26.68 126.355 26.68ZM131.498 27.65C131.931 27.65 132.311 27.7333 132.638 27.9C132.971 28.0667 133.231 28.32 133.418 28.66C133.604 29 133.698 29.43 133.698 29.95V33H132.738V30.06C132.738 29.5467 132.611 29.16 132.358 28.9C132.111 28.64 131.761 28.51 131.308 28.51C130.968 28.51 130.671 28.5767 130.418 28.71C130.164 28.8433 129.968 29.04 129.828 29.3C129.694 29.56 129.628 29.8833 129.628 30.27V33H128.668V27.7H129.588V29.13L129.438 28.75C129.611 28.4033 129.878 28.1333 130.238 27.94C130.598 27.7467 131.018 27.65 131.498 27.65ZM137.794 35C137.308 35 136.834 34.93 136.374 34.79C135.921 34.6567 135.551 34.4633 135.264 34.21L135.724 33.47C135.971 33.6833 136.274 33.85 136.634 33.97C136.994 34.0967 137.371 34.16 137.764 34.16C138.391 34.16 138.851 34.0133 139.144 33.72C139.438 33.4267 139.584 32.98 139.584 32.38V31.26L139.684 30.21L139.634 29.15V27.7H140.544V32.28C140.544 33.2133 140.311 33.9 139.844 34.34C139.378 34.78 138.694 35 137.794 35ZM137.674 32.78C137.161 32.78 136.701 32.6733 136.294 32.46C135.894 32.24 135.574 31.9367 135.334 31.55C135.101 31.1633 134.984 30.7167 134.984 30.21C134.984 29.6967 135.101 29.25 135.334 28.87C135.574 28.4833 135.894 28.1833 136.294 27.97C136.701 27.7567 137.161 27.65 137.674 27.65C138.128 27.65 138.541 27.7433 138.914 27.93C139.288 28.11 139.584 28.39 139.804 28.77C140.031 29.15 140.144 29.63 140.144 30.21C140.144 30.7833 140.031 31.26 139.804 31.64C139.584 32.02 139.288 32.3067 138.914 32.5C138.541 32.6867 138.128 32.78 137.674 32.78ZM137.784 31.94C138.138 31.94 138.451 31.8667 138.724 31.72C138.998 31.5733 139.211 31.37 139.364 31.11C139.524 30.85 139.604 30.55 139.604 30.21C139.604 29.87 139.524 29.57 139.364 29.31C139.211 29.05 138.998 28.85 138.724 28.71C138.451 28.5633 138.138 28.49 137.784 28.49C137.431 28.49 137.114 28.5633 136.834 28.71C136.561 28.85 136.344 29.05 136.184 29.31C136.031 29.57 135.954 29.87 135.954 30.21C135.954 30.55 136.031 30.85 136.184 31.11C136.344 31.37 136.561 31.5733 136.834 31.72C137.114 31.8667 137.431 31.94 137.784 31.94Z" fill="#CDCDD6"/>
<line x1="138.5" y1="8" x2="138.5" y2="19" stroke="#ABACBA"/>
<defs>
<linearGradient id="paint0_linear_13102_29950" x1="0" y1="20.5" x2="27.5" y2="20.5" gradientUnits="userSpaceOnUse">
<stop stop-color="#F9AE34"/>
<stop offset="1" stop-color="#E5047E"/>
</linearGradient>
<linearGradient id="paint1_linear_13102_29950" x1="112" y1="11.1" x2="126" y2="11.1" gradientUnits="userSpaceOnUse">
<stop stop-color="#FDB515"/>
<stop offset="0.5" stop-color="#F2665F"/>
<stop offset="1" stop-color="#EC008C"/>
</linearGradient>
</defs>
</svg>
