<svg width="144" height="24" viewBox="0 0 144 24" fill="none" xmlns="http://www.w3.org/2000/svg">
<path fill-rule="evenodd" clip-rule="evenodd" d="M15.6231 1H2.51787L3.80881 5.39914H15.6231C16.8544 5.39914 17.8563 6.38592 17.8563 7.59994V9.80012H6.6965C3.00329 9.80012 0 12.7604 0 16.3994C0 20.0385 3.00329 23 6.6965 23H15.6231C19.3157 23 22.3202 20.0385 22.3202 16.3994V11.9997V9.80012V7.59994C22.3202 3.96033 19.3157 1 15.6231 1ZM17.8563 16.3994C17.8563 17.6116 16.8544 18.5996 15.6231 18.5996H6.6965C5.46523 18.5996 4.46392 17.6116 4.46392 16.3994C4.46392 15.1867 5.46523 14.1993 6.6965 14.1993H17.8563V16.3994ZM24.6386 9.80049H28.7078L30 14.1996H24.6386V9.80049Z" fill="url(#paint0_linear_4038_5200)"/>
<path d="M48.25 15.66V18H38.494V5.4H48.016V7.74H41.392V10.476H47.242V12.744H41.392V15.66H48.25ZM56.4051 18L54.2811 15.03L52.0851 18H49.0251L52.7511 13.122L49.1511 8.316H52.3011L54.3531 11.142L56.4591 8.316H59.4471L55.8471 13.05L59.5911 18H56.4051ZM66.6782 8.172C67.5782 8.172 68.3942 8.382 69.1262 8.802C69.8702 9.21 70.4522 9.792 70.8722 10.548C71.2922 11.292 71.5022 12.162 71.5022 13.158C71.5022 14.154 71.2922 15.03 70.8722 15.786C70.4522 16.53 69.8702 17.112 69.1262 17.532C68.3942 17.94 67.5782 18.144 66.6782 18.144C65.4422 18.144 64.4702 17.754 63.7622 16.974V21.492H60.9542V8.316H63.6362V9.432C64.3322 8.592 65.3462 8.172 66.6782 8.172ZM66.1922 15.84C66.9122 15.84 67.5002 15.6 67.9562 15.12C68.4242 14.628 68.6582 13.974 68.6582 13.158C68.6582 12.342 68.4242 11.694 67.9562 11.214C67.5002 10.722 66.9122 10.476 66.1922 10.476C65.4722 10.476 64.8782 10.722 64.4102 11.214C63.9542 11.694 63.7262 12.342 63.7262 13.158C63.7262 13.974 63.9542 14.628 64.4102 15.12C64.8782 15.6 65.4722 15.84 66.1922 15.84ZM82.8679 13.194C82.8679 13.23 82.8499 13.482 82.8139 13.95H75.4879C75.6199 14.55 75.9319 15.024 76.4239 15.372C76.9159 15.72 77.5279 15.894 78.2599 15.894C78.7639 15.894 79.2079 15.822 79.5919 15.678C79.9879 15.522 80.3539 15.282 80.6899 14.958L82.1839 16.578C81.2719 17.622 79.9399 18.144 78.1879 18.144C77.0959 18.144 76.1299 17.934 75.2899 17.514C74.4499 17.082 73.8019 16.488 73.3459 15.732C72.8899 14.976 72.6619 14.118 72.6619 13.158C72.6619 12.21 72.8839 11.358 73.3279 10.602C73.7839 9.834 74.4019 9.24 75.1819 8.82C75.9739 8.388 76.8559 8.172 77.8279 8.172C78.7759 8.172 79.6339 8.376 80.4019 8.784C81.1699 9.192 81.7699 9.78 82.2019 10.548C82.6459 11.304 82.8679 12.186 82.8679 13.194ZM77.8459 10.296C77.2099 10.296 76.6759 10.476 76.2439 10.836C75.8119 11.196 75.5479 11.688 75.4519 12.312H80.2219C80.1259 11.7 79.8619 11.214 79.4299 10.854C78.9979 10.482 78.4699 10.296 77.8459 10.296ZM87.4194 9.594C87.7554 9.126 88.2054 8.772 88.7694 8.532C89.3454 8.292 90.0054 8.172 90.7494 8.172V10.764C90.4374 10.74 90.2274 10.728 90.1194 10.728C89.3154 10.728 88.6854 10.956 88.2294 11.412C87.7734 11.856 87.5454 12.528 87.5454 13.428V18H84.7374V8.316H87.4194V9.594ZM98.999 17.532C98.723 17.736 98.381 17.892 97.973 18C97.577 18.096 97.157 18.144 96.713 18.144C95.561 18.144 94.667 17.85 94.031 17.262C93.407 16.674 93.095 15.81 93.095 14.67V10.692H91.601V8.532H93.095V6.174H95.903V8.532H98.315V10.692H95.903V14.634C95.903 15.042 96.005 15.36 96.209 15.588C96.425 15.804 96.725 15.912 97.109 15.912C97.553 15.912 97.931 15.792 98.243 15.552L98.999 17.532ZM117.427 5.4V18H114.511V12.834H108.787V18H105.871V5.4H108.787V10.368H114.511V5.4H117.427ZM129.966 8.316V18H127.302V16.848C126.93 17.268 126.486 17.592 125.97 17.82C125.454 18.036 124.896 18.144 124.296 18.144C123.024 18.144 122.016 17.778 121.272 17.046C120.528 16.314 120.156 15.228 120.156 13.788V8.316H122.964V13.374C122.964 14.934 123.618 15.714 124.926 15.714C125.598 15.714 126.138 15.498 126.546 15.066C126.954 14.622 127.158 13.968 127.158 13.104V8.316H129.966ZM138.291 8.172C139.191 8.172 140.007 8.382 140.739 8.802C141.483 9.21 142.065 9.792 142.485 10.548C142.905 11.292 143.115 12.162 143.115 13.158C143.115 14.154 142.905 15.03 142.485 15.786C142.065 16.53 141.483 17.112 140.739 17.532C140.007 17.94 139.191 18.144 138.291 18.144C136.959 18.144 135.945 17.724 135.249 16.884V18H132.567V4.644H135.375V9.342C136.083 8.562 137.055 8.172 138.291 8.172ZM137.805 15.84C138.525 15.84 139.113 15.6 139.569 15.12C140.037 14.628 140.271 13.974 140.271 13.158C140.271 12.342 140.037 11.694 139.569 11.214C139.113 10.722 138.525 10.476 137.805 10.476C137.085 10.476 136.491 10.722 136.023 11.214C135.567 11.694 135.339 12.342 135.339 13.158C135.339 13.974 135.567 14.628 136.023 15.12C136.491 15.6 137.085 15.84 137.805 15.84Z" fill="white"/>
<defs>
<linearGradient id="paint0_linear_4038_5200" x1="0" y1="11.5" x2="27.5" y2="11.5" gradientUnits="userSpaceOnUse">
<stop stop-color="#F9AE34"/>
<stop offset="1" stop-color="#E5047E"/>
</linearGradient>
</defs>
</svg>
