<svg width="18" height="22" viewBox="0 0 18 22" fill="none" xmlns="http://www.w3.org/2000/svg">
<path d="M4.5 17H2.25C1.42157 17 0.75 16.3284 0.75 15.5V2.75C0.75 1.92157 1.42157 1.25 2.25 1.25H12C12.8284 1.25 13.5 1.92157 13.5 2.75V5M10.875 12.875H13.5M10.875 12.875V15.5M10.875 12.875H8.25M10.875 12.875V10.25M17.25 16.3787V6.5C17.25 5.67157 16.5784 5 15.75 5H6C5.17157 5 4.5 5.67157 4.5 6.5V19.25C4.5 20.0784 5.17157 20.75 6 20.75H12.8787C13.2765 20.75 13.658 20.592 13.9393 20.3107L16.8107 17.4393C17.092 17.158 17.25 16.7765 17.25 16.3787Z" stroke="#131318" stroke-linecap="round" stroke-linejoin="round"/>
</svg>
