<svg width="15" height="15" viewBox="0 0 15 15" fill="none" xmlns="http://www.w3.org/2000/svg">
<path fill-rule="evenodd" clip-rule="evenodd" d="M7.12023 0.98999C3.73473 0.98999 0.990234 3.73448 0.990234 7.11999C0.990234 10.5055 3.73473 13.25 7.12023 13.25C8.63299 13.25 10.0178 12.702 11.0869 11.7938L13.9067 14.6135L13.9759 14.6714C14.1708 14.8064 14.4402 14.7871 14.6138 14.6135C14.809 14.4183 14.809 14.1017 14.6138 13.9064L11.794 11.0866C12.7023 10.0175 13.2502 8.63275 13.2502 7.11999C13.2502 3.73448 10.5057 0.98999 7.12023 0.98999ZM7.12023 1.98999C9.95345 1.98999 12.2502 4.28677 12.2502 7.11999C12.2502 9.95321 9.95345 12.25 7.12023 12.25C4.28701 12.25 1.99023 9.95321 1.99023 7.11999C1.99023 4.28677 4.28701 1.98999 7.12023 1.98999Z" fill="#22212E"/>
</svg>
