<svg width="124" height="113" viewBox="0 0 124 113" fill="none" xmlns="http://www.w3.org/2000/svg">
<path d="M123.859 84.9931L80.98 111.115L77.0371 59.3645L123.859 84.9931Z" fill="#DDDDDF"/>
<path d="M80.293 111.811L84.3574 108.623V25.7471L63.132 13.6407L41.9066 1.53442L37.8421 4.72197" fill="#EDEDEF"/>
<path d="M80.293 111.811L84.3574 108.623V25.7471L63.132 13.6407L41.9066 1.53442L37.8421 4.72197" stroke="#131318" stroke-width="1.54286" stroke-miterlimit="10"/>
<path d="M80.293 111.811L84.3574 108.623V25.7471L82 27L79.5 29" fill="black"/>
<path d="M37.8421 87.5982L80.293 111.811V28.9346L37.8421 4.72192V87.5982Z" fill="white" stroke="#131318" stroke-width="1.54286" stroke-linejoin="round"/>
<path d="M51.8416 24.4402L66.293 32.6832V30.1331L51.8416 21.8901V24.4402Z" fill="#131318"/>
<path d="M43.7132 29.3682L73.9707 46.6256V44.0755L43.7132 26.8181V29.3682Z" fill="#A3A3A3"/>
<path d="M43.7132 37.0183L73.9707 54.2757V51.7257L43.7132 34.4683V37.0183Z" fill="#A3A3A3"/>
<path d="M43.7132 44.6684L73.9707 61.9258V59.3758L43.7132 42.1184V44.6684Z" fill="#A3A3A3"/>
<path d="M43.7132 52.3186L73.9707 69.576V67.026L43.7132 49.7686V52.3186Z" fill="#A3A3A3"/>
<path d="M43.7132 59.9687L73.9707 77.2261V74.6761L43.7132 57.4187V59.9687Z" fill="#A3A3A3"/>
<path d="M43.7132 67.6189L73.9707 84.8763V82.3263L43.7132 65.0688V67.6189Z" fill="#A3A3A3"/>
<path d="M57.2613 82.9956L73.9707 92.5264V89.9763L57.2613 80.4456V82.9956Z" fill="#A3A3A3"/>
<path d="M84.3574 25.7471L80.293 28.9346" stroke="#131318" stroke-width="1.54286" stroke-linejoin="round"/>
<mask id="mask0_10997_24159" style="mask-type:alpha" maskUnits="userSpaceOnUse" x="37" y="3" width="45" height="110">
<path d="M37.8421 87.5982L80.293 111.811V28.9346L37.8421 4.72192V87.5982Z" fill="white" stroke="#131318" stroke-width="1.54286" stroke-linejoin="round"/>
</mask>
<g mask="url(#mask0_10997_24159)">
<path fill-rule="evenodd" clip-rule="evenodd" d="M65.1062 49.4525V43.8343C65.1062 41.4143 64.6249 39.4507 64.0813 37.2331L64.0164 36.9683C63.0298 33.699 61.94 31.0799 60.2269 27.9048C58.6707 25.223 57.2177 23.0838 55.2444 20.7428C52.9079 18.0431 50.8315 16.1864 48.1856 14.3208C46.0554 12.9485 44.1897 11.944 41.4362 11.1098C38.3731 10.3654 35.7272 10.2129 32.5073 11.8363L29.3099 13.645C29.0365 13.7723 28.7687 13.9123 28.5068 14.0652C24.9235 16.1819 22.901 20.4872 22.901 26.1962L22.9431 32.13L17.0352 35.5422C17.0042 35.5609 16.9755 35.5822 16.9491 35.6057C15.9662 36.2236 15.4297 37.4099 15.4297 38.9595V62.6205C15.4297 65.6521 17.6092 69.352 20.2059 70.8723L55.7109 91.3447C56.4912 91.8022 57.267 92.0308 57.9935 92.0308H57.998C58.5182 92.0308 58.9846 91.9053 59.451 91.6452C59.4846 91.6258 59.5176 91.6058 59.5502 91.5852L61.0726 90.7044L69.8285 85.6627C71.1784 84.555 71.2815 83.8374 71.4385 82.3037V58.5843C71.2815 55.2657 69.4652 52.122 66.6623 50.3505L65.1062 49.4525ZM56.5911 44.5383L56.5942 44.0182C56.648 35.4794 50.0017 24.8014 41.8531 20.2226C39.021 18.6456 36.2421 18.0225 33.8825 18.3897C33.0372 19.2964 32.3887 20.5166 31.8839 22.2183C31.6731 23.1018 31.4668 24.7611 31.4668 26.5774L31.4935 30.0542L56.5911 44.5383Z" fill="#A3A3A3" fill-opacity="0.28"/>
</g>
<path fill-rule="evenodd" clip-rule="evenodd" d="M2.56915 29.1757L12.9511 23.1931C14.2472 22.6908 14.8212 22.9106 16.0679 23.4981L51.5729 43.9705C54.1696 45.6388 55.8827 48.5987 56.0352 51.6886V75.3541C55.932 76.7488 55.8289 77.3229 54.7391 78.2333L44.3572 84.2113C45.5007 83.2964 45.55 82.7269 45.707 81.3321L45.6532 57.6711C45.55 54.5946 43.7831 51.6034 41.191 49.9485L5.73534 29.4761C4.43927 28.8886 3.91903 28.6644 2.56915 29.1757Z" fill="#EDEDEF"/>
<path fill-rule="evenodd" clip-rule="evenodd" d="M14.1917 23.5117C14.6581 23.5117 15.0751 23.7045 15.8017 24.0498L51.2573 44.4954C53.6969 46.0426 55.3069 48.8096 55.4101 51.7112V75.3498C55.3069 76.601 55.2532 76.9912 54.3203 77.758L46.1717 82.4804C46.2255 82.1575 46.2749 81.7987 46.2749 81.3861V57.6668C46.1179 54.3437 44.3016 51.1999 41.5526 49.4285L6.04755 28.9381C5.63047 28.7543 5.26719 28.6018 4.95775 28.4852L13.2633 23.709C13.6266 23.57 13.9406 23.5027 14.1962 23.5027L14.1917 23.5117ZM44.351 84.8259C44.4541 84.8259 44.5572 84.7944 44.6604 84.7406L55.0424 78.7626C56.3922 77.6549 56.4954 76.9374 56.6523 75.4036V51.6843C56.4954 48.3656 54.6791 45.2219 51.8762 43.4505L16.3712 22.9601C14.9182 22.2964 14.241 22.0363 12.6849 22.6148L2.24906 28.6421C1.98895 28.7991 1.88577 29.1444 1.98891 29.4314C2.14588 29.7184 2.50913 29.853 2.76924 29.7409C3.91283 29.3149 4.27609 29.4763 5.46901 30.0279L40.8709 50.4734C43.2567 51.9937 44.9205 54.8325 45.0775 57.6937V81.3278C44.9205 82.579 44.9205 82.9737 43.9877 83.7361C43.7276 83.9379 43.6783 84.2967 43.8307 84.5568C43.9877 84.7272 44.1402 84.8214 44.351 84.8214V84.8259Z" fill="#131318"/>
<path fill-rule="evenodd" clip-rule="evenodd" d="M5.73343 29.4762L41.1891 49.9487C43.6287 51.3613 45.6513 54.8369 45.6513 57.6667L45.7051 81.3323C45.7051 84.1666 43.6825 85.3236 41.2429 83.9109L5.73786 63.4385C3.2444 62.0213 1.27565 58.5502 1.27565 55.7159V32.0549C1.27565 29.2206 3.24888 28.0636 5.73786 29.4762H5.73343Z" fill="white"/>
<path fill-rule="evenodd" clip-rule="evenodd" d="M5.73418 29.4765L5.42471 30.0057L40.8804 50.4781C43.1631 51.7742 45.087 55.0704 45.087 57.667V81.3325C45.087 82.4761 44.7237 83.3102 44.0465 83.6824C43.4232 84.0592 42.5397 83.9471 41.5037 83.382L6.04808 62.9096C3.76539 61.6135 1.89529 58.3173 1.89529 55.7162V32.0551C1.89529 30.9115 2.20471 30.0774 2.88189 29.6962C3.50526 29.3285 4.43808 29.4316 5.42471 30.0012L5.73418 29.472V29.4765ZM43.2124 85.131C43.7326 85.131 44.199 85.0054 44.6654 84.7453C45.7059 84.1444 46.2754 82.9335 46.2754 81.337V57.6715C46.2754 54.6398 44.1497 50.94 41.4993 49.4242L6.04359 28.9518C4.64438 28.158 3.29452 28.0504 2.25408 28.6513C1.21364 29.2522 0.644054 30.4631 0.644054 32.0596V55.7207C0.644054 58.7523 2.8236 62.4521 5.42022 63.9724L40.9252 84.4449C41.7056 84.9023 42.4814 85.131 43.2079 85.131H43.2124Z" fill="#131318"/>
<path fill-rule="evenodd" clip-rule="evenodd" d="M23.4846 47.37C20.9418 45.9259 18.9147 47.1009 18.9147 49.9935C18.9147 51.7604 19.695 53.7471 20.8341 55.3661V63.5685C20.8341 64.9498 21.8207 66.645 23.0137 67.3357L23.8972 67.8604C25.0901 68.551 26.0767 67.9859 26.0767 66.6047V58.4022C27.2696 58.1152 27.9961 56.9896 27.9961 55.2316C27.9961 52.339 25.9735 48.814 23.4801 47.3745L23.4846 47.37Z" fill="#F47695"/>
<path fill-rule="evenodd" clip-rule="evenodd" d="M21.4073 47.3612C21.9275 47.3612 22.5508 47.5406 23.1742 47.8994C25.4569 49.2448 27.3808 52.5275 27.3808 55.2273C27.3808 56.64 26.8606 57.5772 25.9278 57.8015C25.6677 57.8687 25.4614 58.1109 25.4614 58.3979V66.6004C25.4614 67.0354 25.3582 67.3538 25.1519 67.4793C24.9456 67.6049 24.6317 67.5466 24.2191 67.3269L23.3357 66.8021C22.2952 66.2191 21.4656 64.7347 21.4656 63.5642V55.3618C21.4656 55.2363 21.4118 55.1062 21.3086 55.0031C20.2188 53.4289 19.5416 51.5543 19.5416 49.9892C19.5416 48.8232 19.9049 47.9576 20.5821 47.5809C20.8422 47.4285 21.1023 47.3567 21.4117 47.3567L21.4073 47.3612ZM24.8874 68.7619C25.1968 68.7619 25.5107 68.6902 25.7708 68.5377C26.3404 68.1879 26.7036 67.4838 26.7036 66.6004V58.833C27.8965 58.3083 28.623 56.9942 28.623 55.2273C28.623 52.0925 26.4973 48.4061 23.7437 46.8365C22.3445 46.0248 20.9947 45.9171 19.9542 46.5181C18.9138 47.128 18.2949 48.3613 18.2949 49.9847C18.2949 51.7696 19.0214 53.7832 20.2143 55.5502V63.5597C20.2143 65.1697 21.3041 67.0578 22.7078 67.8561L23.6406 68.3808C24.0577 68.6319 24.4703 68.753 24.8874 68.753V68.7619Z" fill="#131318"/>
<path fill-rule="evenodd" clip-rule="evenodd" d="M16.5284 15.1661C16.9948 13.6458 17.6181 12.1344 18.7617 10.9863C18.5554 11.0446 18.3446 11.0805 18.1383 11.1299C14.869 12.1165 12.3263 15.1481 12.3263 19.8345L12.2724 28.907L16.1158 26.6916L16.0619 19.6776C16.0619 17.7671 16.3221 16.063 16.5284 15.1616V15.1661Z" fill="#A3A3A3"/>
<path fill-rule="evenodd" clip-rule="evenodd" d="M15.4931 26.346L12.8966 27.8528L12.9504 19.8432C12.9504 16.3721 14.5065 13.5782 17.0493 12.2373C16.6323 13.0176 16.269 13.919 15.9595 14.9954C15.9595 15.0088 15.9596 15.0178 15.9057 15.0312C15.6994 16.0178 15.4394 17.7624 15.4887 19.6863V26.346H15.4931ZM12.2732 29.5211C12.3763 29.5211 12.4794 29.4942 12.5826 29.4359L16.426 27.2205C16.6323 27.1129 16.7354 26.9111 16.7354 26.6913L16.6816 19.6773C16.6816 17.861 16.8879 16.2017 17.0987 15.3182C17.6189 13.5647 18.2916 12.3225 19.1751 11.4076C19.3814 11.2103 19.4352 10.8964 19.2782 10.6587C19.1212 10.421 18.8118 10.3134 18.5517 10.3986C18.4979 10.4255 18.3947 10.4434 18.2916 10.4658C18.1885 10.4882 18.0853 10.5107 17.9821 10.5421C14.1388 11.6991 11.6991 15.2599 11.6991 19.8298L11.6453 28.9023C11.6453 29.122 11.8023 29.3238 11.9548 29.4314C12.0579 29.4897 12.1611 29.5167 12.2642 29.5167L12.2732 29.5211Z" fill="#131318"/>
<path fill-rule="evenodd" clip-rule="evenodd" d="M26.4979 4.79291C23.381 4.035 20.9414 3.9946 17.986 5.47902L14.1965 7.60923C17.4165 5.97233 20.2194 6.16968 23.5918 7.19218C26.1346 8.11602 27.9509 9.13849 30.1842 10.6947C32.4669 12.4482 34.2832 14.1613 36.2072 16.3588C37.8665 18.332 39.167 20.1618 40.5169 22.3548C42.1762 25.2205 43.423 28.0592 44.5127 31.2164C45.1854 33.5619 45.8626 35.5217 45.8626 37.9659L45.9164 48.3209L49.706 46.1189L49.7598 36.9344C49.7598 34.5082 49.2396 32.5708 48.6162 30.2164C47.6296 26.8843 46.5398 24.2832 44.9298 21.2874C43.4229 18.6773 41.9206 16.5471 39.9967 14.2286C37.8171 11.7127 35.7901 9.84709 33.041 7.91421C30.8076 6.47015 29.0452 5.55529 26.5024 4.78842L26.4979 4.79291Z" fill="#EDEDEF"/>
<path fill-rule="evenodd" clip-rule="evenodd" d="M49.0781 45.7647L46.5353 47.2626L46.4322 37.9614C46.4322 35.6787 45.9119 33.8535 45.2885 31.7412L45.0823 31.0416C44.0418 27.9023 42.7458 25.0456 41.0326 22.0454C39.6334 19.803 38.3329 17.9284 36.6735 15.9686C34.651 13.6411 32.7809 11.928 30.5475 10.2104C28.4711 8.73043 26.601 7.61824 23.7981 6.61816C22.1881 6.13382 20.5288 5.75264 18.7125 5.79749C21.3584 4.57766 23.6456 4.73012 26.3454 5.38488C28.942 6.16969 30.7045 7.13391 32.7315 8.42549C35.2743 10.2193 37.2476 12.0222 39.5303 14.6277C41.4497 16.9015 42.9027 18.9868 44.4096 21.5924C46.0689 24.6779 47.1093 27.2296 48.0421 30.3913C48.6117 32.6247 49.1319 34.5665 49.1319 36.9299L49.0781 45.7602V45.7647ZM45.9119 48.9308C46.0151 48.9308 46.1182 48.8995 46.2213 48.8502L50.0109 46.6482C50.1679 46.5405 50.3203 46.3387 50.3203 46.119V36.9344C50.3203 34.4185 49.8001 32.396 49.2306 30.0684C48.2439 26.7991 47.1541 24.18 45.441 21.0049C43.8848 18.3231 42.4318 16.1839 40.4586 13.8429C38.1221 11.1432 36.0457 9.28654 33.3997 7.42093C31.2695 6.04863 29.4039 5.04405 26.6503 4.2099C23.5873 3.46545 20.9414 3.31297 17.7214 4.93641L13.9318 7.08009C13.6224 7.24154 13.5148 7.60478 13.6717 7.90076C13.8287 8.19227 14.192 8.29993 14.4521 8.15642C17.6182 6.5554 20.318 6.84238 23.4348 7.78416C25.7175 8.61382 27.4845 9.54214 29.821 11.2059C32.0005 12.8563 33.7675 14.5246 35.7407 16.7669C37.3507 18.6774 38.6468 20.5027 39.9966 22.6777C41.656 25.5883 42.9027 28.3732 43.8893 31.4138L44.0956 32.1044C44.719 34.118 45.2392 35.8626 45.2392 37.9749L45.293 48.3299C45.293 48.5407 45.3962 48.747 45.6024 48.8546C45.7056 48.9085 45.8088 48.9353 45.9119 48.9353V48.9308Z" fill="#131318"/>
<path fill-rule="evenodd" clip-rule="evenodd" d="M27.3745 8.87367C17.0956 3.1109 8.74078 7.7839 8.74078 19.296L8.79459 26.8841L12.2747 28.9066L12.3285 19.8341C12.3285 11.5061 19.4411 8.35793 27.3834 12.7888C35.3796 17.2914 42.4878 27.9783 42.4385 37.1225L42.3846 46.2936L45.9141 48.3117V38.4231C45.9141 27.2428 37.0882 14.336 27.3834 8.8647L27.3745 8.87367Z" fill="white"/>
<path fill-rule="evenodd" clip-rule="evenodd" d="M19.0704 7.00819C21.4562 7.00819 24.2098 7.80644 27.0665 9.40297C37.0852 15.0312 45.2876 28.0547 45.2876 38.4322V47.2624L43.0049 45.9484V37.1271C43.0588 28.1892 36.1524 17.0314 27.6405 12.2642C23.3308 9.84696 19.0748 9.50615 15.9625 11.3359C13.2089 12.9235 11.7065 15.9461 11.7065 19.8388L11.6527 27.8573L9.37006 26.5344V19.2961C9.37006 14.0446 11.137 10.1026 14.3525 8.21902C15.7517 7.4073 17.3617 7.00819 19.0749 7.00819H19.0704ZM45.9065 48.9307C46.0097 48.9307 46.1128 48.8993 46.2159 48.85C46.3729 48.7424 46.5254 48.5405 46.5254 48.3208V38.4322C46.4716 27.4762 38.2198 14.2643 27.6315 8.34011C22.389 5.40267 17.4559 4.9856 13.7201 7.16514C10.1369 9.28189 8.11433 13.5872 8.11433 19.2961L8.16815 26.8842C8.16815 27.1039 8.27132 27.3057 8.47762 27.4134L11.9577 29.4359C12.1639 29.5436 12.3747 29.5436 12.581 29.4359C12.7873 29.3283 12.8905 29.1265 12.8905 28.9067L12.9443 19.8388C12.9443 16.3901 14.191 13.7441 16.5275 12.3853C19.2766 10.7798 23.12 11.1251 27.0665 13.3226C35.2151 17.9014 41.8613 28.5794 41.8075 37.1181L41.7537 46.2892C41.7537 46.509 41.9107 46.7108 42.0631 46.8229L45.5925 48.841C45.6957 48.8949 45.7989 48.9217 45.902 48.9217L45.9065 48.9307Z" fill="#131318"/>
<path fill-rule="evenodd" clip-rule="evenodd" d="M22.4475 66.9456C22.6538 67.0981 22.8107 67.2281 23.017 67.3357L23.9005 67.8605C25.0934 68.5511 26.0801 67.986 26.0801 66.6047V64.8557L22.4475 66.9456Z" fill="#F47695"/>
<path fill-rule="evenodd" clip-rule="evenodd" d="M25.4564 65.9053V66.6004C25.4564 67.0354 25.3533 67.3538 25.147 67.4794C24.9407 67.6005 24.6268 67.5467 24.2142 67.3269L23.6446 66.9816L25.4609 65.9053H25.4564ZM24.8869 68.762C25.1963 68.762 25.5102 68.6902 25.7703 68.5378C26.3399 68.188 26.7031 67.4839 26.7031 66.6004V64.8514C26.7031 64.6316 26.6 64.4299 26.3937 64.3222C26.2367 64.2191 25.9766 64.2191 25.7703 64.3222L22.1871 66.412C21.9808 66.5107 21.8777 66.6856 21.8777 66.883C21.8239 67.0803 21.9315 67.2731 22.084 67.4032C22.2903 67.5781 22.501 67.7351 22.7073 67.8606L23.6401 68.3853C24.0572 68.6364 24.4698 68.7576 24.8869 68.7576V68.762Z" fill="#131318"/>
<path fill-rule="evenodd" clip-rule="evenodd" d="M23.4841 47.37C20.9413 45.9259 18.9142 47.1009 18.9142 49.9935C18.9142 51.1236 19.2237 52.3569 19.7439 53.5184L20.8337 55.3661L27.166 51.7111C26.3364 49.8993 24.9865 48.2535 23.4796 47.37H23.4841Z" fill="#F47695"/>
<path fill-rule="evenodd" clip-rule="evenodd" d="M26.3406 51.4647L21.0442 54.5277L20.3177 53.2092C19.7975 52.1329 19.5374 51.0027 19.5374 49.9892C19.5374 48.8232 19.9006 47.9576 20.5778 47.5809C21.2012 47.2042 22.134 47.3164 23.1744 47.8994C24.3673 48.608 25.5648 49.9175 26.3406 51.4647ZM20.8379 55.9718C20.9411 55.9718 21.0442 55.9448 21.1474 55.8865L27.4797 52.236C27.7398 52.079 27.843 51.7382 27.7398 51.4512C26.807 49.469 25.354 47.7469 23.744 46.8365C22.3448 46.0248 20.9949 45.9171 19.9545 46.5181C18.914 47.128 18.2951 48.3613 18.2951 49.9847C18.2951 51.1731 18.6046 52.4782 19.2279 53.7653L20.3177 55.6668C20.4208 55.8596 20.6271 55.9673 20.8379 55.9673V55.9718Z" fill="#131318"/>
<path fill-rule="evenodd" clip-rule="evenodd" d="M55.204 48.4557L55.2579 48.5453C55.7243 49.7382 55.9306 50.5904 55.9844 51.8819V75.4084C55.8274 76.7942 55.7781 77.3637 54.6883 78.2741L44.3601 84.2163C45.5037 83.3059 45.5531 82.7408 45.6562 81.3506V57.8241C45.6024 56.6716 45.4499 55.4517 44.9297 54.4023L55.2085 48.4512L55.204 48.4557Z" fill="black"/>
<path fill-rule="evenodd" clip-rule="evenodd" d="M54.891 49.3391C55.2004 50.1373 55.308 50.8414 55.3574 51.9043V75.4084C55.2542 76.6506 55.2004 77.0363 54.2676 77.8031L46.1683 82.4896C46.2221 82.1712 46.2221 81.8214 46.2714 81.4088V57.8285C46.2176 56.6132 46.0114 55.5548 45.7019 54.6668L54.891 49.3391ZM44.3521 84.8306C44.4552 84.8306 44.5583 84.7992 44.6615 84.7454L54.9403 78.7987C56.344 77.7045 56.4471 76.987 56.5996 75.4667L56.5458 51.8864C56.492 50.4423 56.2857 49.514 55.8193 48.321C55.7655 48.1596 55.613 47.9892 55.4561 47.9309C55.2498 47.8726 55.039 47.8502 54.8865 47.9309L44.6077 53.8775C44.3475 54.039 44.2444 54.3798 44.3476 54.6668C44.7646 55.5055 44.9709 56.5773 45.0203 57.8554L45.0741 81.355C44.9171 82.5973 44.9171 82.9919 43.9843 83.7498C43.7242 83.9516 43.6749 84.3104 43.8273 84.5705C43.9843 84.7409 44.1368 84.8351 44.3476 84.8351L44.3521 84.8306Z" fill="#131318"/>
</svg>
