<svg width="24" height="24" viewBox="0 0 24 24" fill="none" xmlns="http://www.w3.org/2000/svg">
<path d="M21 12C21 7.02944 16.9706 3 12 3C7.02944 3 3 7.02944 3 12C3 16.9706 7.02944 21 12 21M9.06279 12.2868L11.0209 14.2449L14.9372 10.3286" stroke="#131318" stroke-linecap="round" stroke-linejoin="round"/>
<path fill-rule="evenodd" clip-rule="evenodd" d="M13.75 18C13.75 17.5858 14.0858 17.25 14.5 17.25H14.5625C14.9767 17.25 15.3125 17.5858 15.3125 18V18C15.3125 18.4142 14.9767 18.75 14.5625 18.75H14.5C14.0858 18.75 13.75 18.4142 13.75 18V18ZM18.5625 18C18.5625 18.4142 18.2267 18.75 17.8125 18.75H17.6875C17.2733 18.75 16.9375 18.4142 16.9375 18V18C16.9375 17.5858 17.2733 17.25 17.6875 17.25H17.8125C18.2267 17.25 18.5625 17.5858 18.5625 18V18ZM20.9375 18.75C20.5233 18.75 20.1875 18.4142 20.1875 18V18C20.1875 17.5858 20.5233 17.25 20.9375 17.25H21C21.4142 17.25 21.75 17.5858 21.75 18V18C21.75 18.4142 21.4142 18.75 21 18.75H20.9375Z" fill="#131318"/>
</svg>
