<svg width="8" height="19" viewBox="0 0 8 19" fill="none" xmlns="http://www.w3.org/2000/svg">
<path fill-rule="evenodd" clip-rule="evenodd" d="M0 2.14355C0 2.97198 0.671573 3.64355 1.5 3.64355C2.32843 3.64355 3 2.97198 3 2.14355C3 1.31513 2.32843 0.643555 1.5 0.643555C0.671573 0.643555 0 1.31513 0 2.14355ZM5 2.14355C5 2.97198 5.67157 3.64355 6.5 3.64355C7.32843 3.64355 8 2.97198 8 2.14355C8 1.31513 7.32843 0.643555 6.5 0.643555C5.67157 0.643555 5 1.31513 5 2.14355ZM1.5 8.64355C0.671573 8.64355 0 7.97198 0 7.14355C0 6.31513 0.671573 5.64355 1.5 5.64355C2.32843 5.64355 3 6.31513 3 7.14355C3 7.97198 2.32843 8.64355 1.5 8.64355ZM5 7.14355C5 7.97198 5.67157 8.64355 6.5 8.64355C7.32843 8.64355 8 7.97198 8 7.14355C8 6.31513 7.32843 5.64355 6.5 5.64355C5.67157 5.64355 5 6.31513 5 7.14355ZM1.5 13.6436C0.671573 13.6436 0 12.972 0 12.1436C0 11.3151 0.671573 10.6436 1.5 10.6436C2.32843 10.6436 3 11.3151 3 12.1436C3 12.972 2.32843 13.6436 1.5 13.6436ZM0 17.1436C0 17.972 0.671573 18.6436 1.5 18.6436C2.32843 18.6436 3 17.972 3 17.1436C3 16.3151 2.32843 15.6436 1.5 15.6436C0.671573 15.6436 0 16.3151 0 17.1436ZM6.5 13.6436C5.67157 13.6436 5 12.972 5 12.1436C5 11.3151 5.67157 10.6436 6.5 10.6436C7.32843 10.6436 8 11.3151 8 12.1436C8 12.972 7.32843 13.6436 6.5 13.6436ZM5 17.1436C5 17.972 5.67157 18.6436 6.5 18.6436C7.32843 18.6436 8 17.972 8 17.1436C8 16.3151 7.32843 15.6436 6.5 15.6436C5.67157 15.6436 5 16.3151 5 17.1436Z" fill="#ABACBA"/>
</svg>
