<svg width="12" height="4" viewBox="0 0 12 4" fill="none" xmlns="http://www.w3.org/2000/svg">
<path d="M2.33791 3.112C3.09391 3.112 3.69591 2.538 3.69591 1.74C3.69591 0.928 3.09391 0.396 2.33791 0.396C1.58191 0.396 0.979906 0.928 0.979906 1.74C0.979906 2.538 1.58191 3.112 2.33791 3.112ZM6.00197 3.112C6.75797 3.112 7.35997 2.538 7.35997 1.74C7.35997 0.928 6.75797 0.396 6.00197 0.396C5.24597 0.396 4.64397 0.928 4.64397 1.74C4.64397 2.538 5.24597 3.112 6.00197 3.112ZM9.66603 3.112C10.422 3.112 11.024 2.538 11.024 1.74C11.024 0.928 10.422 0.396 9.66603 0.396C8.91003 0.396 8.30803 0.928 8.30803 1.74C8.30803 2.538 8.91003 3.112 9.66603 3.112Z" fill="#131318"/>
</svg>
