<svg width="3" height="12" viewBox="0 0 3 12" fill="none" xmlns="http://www.w3.org/2000/svg">
<path d="M1.2818 11.6254C0.581778 11.6254 0 11.0436 0 10.3436C0 9.64355 0.581778 9.06177 1.2818 9.06177C1.98183 9.06177 2.56361 9.64355 2.53523 10.3767C2.56834 11.0436 1.95345 11.6254 1.2818 11.6254Z" fill="white"/>
<path d="M2.4832 3.33886C2.42644 4.33214 2.36495 5.32069 2.30819 6.31397C2.27981 6.6356 2.27981 6.92885 2.27981 7.24576C2.25143 7.77078 1.83993 8.17755 1.31491 8.17755C0.789893 8.17755 0.383122 7.79916 0.350013 7.27414C0.264874 5.72746 0.175006 4.20916 0.0898681 2.66248C0.0614887 2.25571 0.0331093 1.84421 0 1.43744C0 0.765794 0.378392 0.212396 0.993279 0.0373894C1.60817 -0.109237 2.21832 0.184016 2.4832 0.765794C2.57307 0.96918 2.60145 1.17257 2.60145 1.40906C2.57307 2.05706 2.51158 2.70032 2.4832 3.33886Z" fill="white"/>
</svg>
