<svg width="324" height="239" viewBox="0 0 324 239" fill="none" xmlns="http://www.w3.org/2000/svg">
<mask id="mask0_12192_12137" style="mask-type:luminance" maskUnits="userSpaceOnUse" x="68" y="64" width="179" height="145">
<path fill-rule="evenodd" clip-rule="evenodd" d="M68 64.2559H246.129V208.668H68V64.2559Z" fill="white"/>
</mask>
<g mask="url(#mask0_12192_12137)">
<path fill-rule="evenodd" clip-rule="evenodd" d="M185.532 140.467L185.309 140.43C192.302 141.635 198.507 141.411 204.536 140.764C209.39 140.242 213.9 138.14 217.337 134.859L185.532 140.467ZM68.1171 187.683C65.8757 172.243 96.5976 172.779 93.1132 162.076C92.5082 160.22 90.5396 160.886 88.6321 161.731L88.2752 161.891C86.2615 162.803 84.4169 163.752 84.4484 161.925C84.5121 158.272 91.3926 158.392 91.0935 157.264C90.1708 153.783 77.3835 160.694 77.4897 154.618C77.595 148.541 91.6976 151.911 96.9919 150.289C113.936 145.098 125.656 140.408 131.472 137.59C141.45 132.756 141.836 121.799 149.719 118.307C149.732 118.302 149.744 118.296 149.756 118.291C146.728 107.827 146.493 96.0656 149.755 86.9981C152.339 79.8108 156.709 75.3323 162.056 74.3891C162.781 74.2617 163.512 74.2014 164.244 74.2065L219.657 64.4362C224.932 63.5059 230.503 66.1959 235.342 72.0084C240.169 77.8039 243.541 85.8927 245.117 94.345L245.224 94.9356C246.753 103.6 246.392 112.597 243.781 119.858C241.22 126.975 236.903 131.408 231.629 132.338L218.872 134.588C214.826 138.602 209.143 141.529 204.058 142.021C197.884 142.618 191.158 142.271 184.035 140.986C183.943 140.97 183.872 140.846 183.841 140.764L176.217 142.109C175.71 142.298 175.193 142.453 174.665 142.572C174.547 143.482 174.541 144.398 174.647 145.319C174.825 146.856 175.132 148.421 175.447 149.945L175.564 150.514C176.543 155.243 177.422 159.498 174.369 161.227C171.815 162.672 151.341 164.827 140.662 170.734C138.43 171.968 136.788 176.84 135.246 181.986L135.032 182.705C134.996 182.825 134.961 182.946 134.925 183.065L134.605 184.147C132.798 190.263 131.035 196.104 128.495 196.06C126.86 196.031 126.87 194.554 126.864 193.03L126.862 192.735C126.845 190.967 126.66 189.259 123.704 189.813C121.363 190.25 119.73 194.717 117.856 199.192L117.558 199.898C115.756 204.128 113.693 208.176 110.56 208.625C106.856 209.154 109.107 204.78 111.528 200.28L111.918 199.556C113.691 196.261 115.39 193.034 114.744 191.753C113.168 188.627 111.296 190.192 110.001 190.628C108.319 191.194 107.063 199.138 98.2536 200.524C89.4435 201.912 81.0982 195.233 82.7635 191.345C86.3533 182.967 68.6949 191.665 68.1171 187.683Z" fill="#EDEDEF"/>
</g>
<path fill-rule="evenodd" clip-rule="evenodd" d="M246.74 83.4363C248.419 92.073 248.216 101.074 245.732 108.38C243.296 115.541 239.058 120.049 233.8 121.07L176.031 132.3L162.875 64.6172L220.644 53.3881C225.903 52.366 231.52 54.9575 236.46 60.685C241.501 66.5281 245.062 74.7995 246.74 83.4363Z" fill="white"/>
<path fill-rule="evenodd" clip-rule="evenodd" d="M164.006 65.3867L176.792 131.163L233.615 120.117L233.933 120.05C236.257 119.526 238.363 118.247 240.174 116.303C242.08 114.258 243.658 111.478 244.819 108.063C249.689 93.7424 245.613 72.7745 235.734 61.3211C233.378 58.5903 230.874 56.6038 228.34 55.4211C225.823 54.246 223.279 53.8654 220.829 54.3412L164.006 65.3867ZM162.676 64.4827L220.611 53.2213C223.274 52.7039 226.028 53.099 228.742 54.3514C231.44 55.5961 234.1 57.6897 236.588 60.5743C241.647 66.4378 245.222 74.7364 246.907 83.4037C248.591 92.0711 248.386 101.104 245.893 108.435C244.666 112.041 242.984 114.979 240.948 117.144C238.985 119.231 236.695 120.603 234.163 121.168L233.832 121.237L175.896 132.499L162.676 64.4827Z" fill="#0A0A3B"/>
<path d="M164.006 65.3867L163.968 65.1904L163.772 65.2286L163.81 65.4249L164.006 65.3867ZM176.792 131.163L176.596 131.201L176.634 131.397L176.83 131.359L176.792 131.163ZM233.615 120.117L233.653 120.314L233.656 120.313L233.615 120.117ZM233.933 120.05L233.974 120.246L233.977 120.245L233.933 120.05ZM240.174 116.303L240.028 116.167L240.028 116.167L240.174 116.303ZM244.819 108.063L245.008 108.128V108.128L244.819 108.063ZM235.734 61.3211L235.582 61.4517L235.582 61.4518L235.734 61.3211ZM228.34 55.4211L228.255 55.6023L228.255 55.6023L228.34 55.4211ZM220.829 54.3412L220.791 54.1448L220.791 54.1449L220.829 54.3412ZM162.676 64.4827L162.638 64.2864L162.441 64.3245L162.479 64.5209L162.676 64.4827ZM220.611 53.2213L220.573 53.025L220.573 53.025L220.611 53.2213ZM228.742 54.3514L228.658 54.533L228.658 54.533L228.742 54.3514ZM236.588 60.5743L236.436 60.7049L236.436 60.7049L236.588 60.5743ZM245.893 108.435L246.082 108.499L246.082 108.499L245.893 108.435ZM240.948 117.144L240.802 117.007L240.802 117.007L240.948 117.144ZM234.163 121.168L234.204 121.364L234.207 121.364L234.163 121.168ZM233.832 121.237L233.87 121.434L233.873 121.433L233.832 121.237ZM175.896 132.499L175.7 132.538L175.738 132.734L175.935 132.696L175.896 132.499ZM163.81 65.4249L176.596 131.201L176.988 131.125L164.203 65.3486L163.81 65.4249ZM176.83 131.359L233.653 120.314L233.576 119.921L176.754 130.967L176.83 131.359ZM233.656 120.313L233.974 120.246L233.892 119.855L233.573 119.922L233.656 120.313ZM233.977 120.245C236.346 119.711 238.486 118.409 240.32 116.44L240.028 116.167C238.24 118.086 236.168 119.341 233.889 119.855L233.977 120.245ZM240.32 116.44C242.25 114.369 243.84 111.562 245.008 108.128L244.63 107.999C243.475 111.394 241.91 114.147 240.028 116.167L240.32 116.44ZM245.008 108.128C247.457 100.926 247.654 92.0674 246.004 83.5787C244.354 75.09 240.853 66.9499 235.885 61.1905L235.582 61.4518C240.494 67.1457 243.971 75.2162 245.611 83.655C247.252 92.0939 247.051 100.879 244.63 107.999L245.008 108.128ZM235.885 61.1905C233.516 58.4437 230.99 56.4372 228.424 55.2399L228.255 55.6023C230.758 56.7704 233.241 58.7369 235.582 61.4517L235.885 61.1905ZM228.424 55.2399C225.875 54.0496 223.288 53.6599 220.791 54.1448L220.867 54.5375C223.27 54.0709 225.771 54.4425 228.255 55.6023L228.424 55.2399ZM220.791 54.1449L163.968 65.1904L164.045 65.5831L220.867 54.5375L220.791 54.1449ZM162.714 64.679L220.65 53.4177L220.573 53.025L162.638 64.2864L162.714 64.679ZM220.65 53.4177C223.266 52.9092 225.977 53.2959 228.658 54.533L228.826 54.1698C226.079 52.9021 223.282 52.4986 220.573 53.025L220.65 53.4177ZM228.658 54.533C231.325 55.7632 233.962 57.8367 236.436 60.7049L236.739 60.4436C234.237 57.5427 231.556 55.4291 228.826 54.1698L228.658 54.533ZM236.436 60.7049C241.468 66.5357 245.03 74.7995 246.71 83.4419L247.103 83.3656C245.413 74.6732 241.827 66.3398 236.739 60.4436L236.436 60.7049ZM246.71 83.4419C248.39 92.0843 248.183 101.08 245.704 108.37L246.082 108.499C248.589 101.127 248.793 92.0579 247.103 83.3656L246.71 83.4419ZM245.704 108.37C244.484 111.957 242.814 114.867 240.802 117.007L241.094 117.281C243.153 115.09 244.848 112.126 246.082 108.499L245.704 108.37ZM240.802 117.007C238.863 119.069 236.607 120.417 234.12 120.973L234.207 121.364C236.782 120.788 239.107 119.394 241.094 117.281L240.802 117.007ZM234.123 120.973L233.791 121.041L233.873 121.433L234.204 121.364L234.123 120.973ZM233.794 121.041L175.858 132.303L175.935 132.696L233.87 121.434L233.794 121.041ZM176.093 132.461L162.872 64.4445L162.479 64.5209L175.7 132.538L176.093 132.461Z" fill="#0A0A3B"/>
<path fill-rule="evenodd" clip-rule="evenodd" d="M241.386 68.8385L241.234 68.0518L183.848 79.2069L184 79.9937L241.386 68.8385Z" fill="#0A0A3B"/>
<path fill-rule="evenodd" clip-rule="evenodd" d="M242.164 114.211L242.317 114.998L184.985 126.087L184.832 125.301L242.164 114.211Z" fill="#0A0A3B"/>
<path fill-rule="evenodd" clip-rule="evenodd" d="M233.77 58.8L233.617 58.0132L176.231 69.1683L176.384 69.9551L233.77 58.8Z" fill="#0A0A3B"/>
<path fill-rule="evenodd" clip-rule="evenodd" d="M236.529 61.7033L236.376 60.9165L178.992 72.0717L179.145 72.8576L236.529 61.7033Z" fill="#0A0A3B"/>
<path fill-rule="evenodd" clip-rule="evenodd" d="M225.4 117.136C222.597 124.19 213.896 130.376 206.402 131.234C200.24 131.937 193.508 131.709 186.364 130.548C186.225 130.526 186.13 130.26 186.151 130.256C186.165 130.253 186.657 130.158 187.627 129.969C194.64 131.053 200.841 130.72 206.858 129.968C214.475 129.013 221.173 124.168 224.148 117.043C227.038 110.122 226.137 102.377 221.738 96.3135C210.762 81.1845 187.128 73.8961 186.89 73.8239L187.23 72.6743C187.472 72.7474 211.484 80.1454 222.699 95.6083C224.677 98.3331 225.988 101.383 226.603 104.548C227.409 108.696 227.026 113.045 225.4 117.136Z" fill="#0A0A3B"/>
<path fill-rule="evenodd" clip-rule="evenodd" d="M225.4 117.136C222.597 124.19 213.896 130.376 206.402 131.234C200.24 131.937 193.508 131.709 186.364 130.548C186.225 130.526 186.13 130.26 186.151 130.256C186.165 130.253 186.657 130.158 187.627 129.969C194.64 131.053 200.841 130.72 206.858 129.968C214.475 129.013 221.173 124.168 224.148 117.043C227.038 110.122 226.137 102.377 221.738 96.3135C210.762 81.1845 187.128 73.8961 186.89 73.8239L187.23 72.6743C187.472 72.7474 211.484 80.1454 222.699 95.6083C224.677 98.3331 225.988 101.383 226.603 104.548C227.409 108.696 227.026 113.045 225.4 117.136Z" stroke="#0A0A3B"/>
<mask id="mask1_12192_12137" style="mask-type:luminance" maskUnits="userSpaceOnUse" x="184" y="71" width="6" height="4">
<path fill-rule="evenodd" clip-rule="evenodd" d="M186.058 71.6456C184.962 71.858 184.669 72.7204 185.404 73.5726C186.138 74.4231 187.622 74.9389 188.716 74.7265C189.812 74.514 190.105 73.6508 189.373 72.8011C188.751 72.0789 187.589 71.5972 186.582 71.5972C186.402 71.5972 186.226 71.6125 186.058 71.6456Z" fill="white"/>
</mask>
<g mask="url(#mask1_12192_12137)">
<path fill-rule="evenodd" clip-rule="evenodd" d="M186.058 71.6456C184.962 71.858 184.669 72.7204 185.404 73.5726C186.138 74.4231 187.622 74.9389 188.716 74.7265C189.812 74.514 190.105 73.6508 189.373 72.8011C188.751 72.0789 187.589 71.5972 186.582 71.5972C186.402 71.5972 186.226 71.6125 186.058 71.6456Z" fill="url(#paint0_linear_12192_12137)"/>
</g>
<path fill-rule="evenodd" clip-rule="evenodd" d="M190.148 73.4534C190.193 73.6853 190.18 73.9156 190.107 74.1339C189.933 74.6369 189.469 74.9878 188.792 75.1195C187.554 75.36 185.933 74.795 185.104 73.8349C184.651 73.3106 184.497 72.7422 184.669 72.2375C184.84 71.7345 185.306 71.3827 185.982 71.2519C187.22 71.0106 188.842 71.5756 189.672 72.5383C189.928 72.8365 190.088 73.1483 190.148 73.4534ZM185.409 72.7677C185.442 72.9359 185.542 73.1228 185.702 73.3098C186.341 74.049 187.685 74.5188 188.639 74.3336C189.018 74.2597 189.28 74.0906 189.355 73.8714C189.43 73.6513 189.325 73.3582 189.073 73.0625C188.434 72.3216 187.088 71.8526 186.134 72.0378C185.755 72.1118 185.495 72.2808 185.42 72.4992C185.393 72.5816 185.39 72.6708 185.409 72.7677Z" fill="#0A0A3B"/>
<path fill-rule="evenodd" clip-rule="evenodd" d="M151.71 77.363C156.645 62.8475 168.767 60.4914 178.782 72.1011C188.795 83.7108 192.914 104.889 187.977 119.404C183.04 133.918 170.919 136.274 160.904 124.664C150.89 113.057 146.773 91.8786 151.71 77.363Z" fill="#F3F3F0"/>
<path fill-rule="evenodd" clip-rule="evenodd" d="M151.451 101.959C153.089 110.386 156.562 118.458 161.482 124.16C163.812 126.863 166.287 128.83 168.789 130.002C171.273 131.166 173.782 131.544 176.196 131.075C178.61 130.605 180.795 129.315 182.663 127.305C184.543 125.282 186.101 122.531 187.252 119.151C192.1 104.889 188.042 84.0104 178.202 72.6055C175.871 69.9036 173.395 67.9366 170.894 66.7649C168.41 65.6009 165.901 65.2228 163.488 65.6918C161.074 66.1608 158.889 67.4514 157.022 69.4609C155.141 71.4848 153.583 74.236 152.433 77.6142C150.009 84.7445 149.813 93.5291 151.451 101.959ZM150.985 77.112C152.223 73.4704 153.924 70.5034 155.985 68.3164C158.057 66.1166 160.494 64.7028 163.193 64.1786C165.892 63.6535 168.681 64.0511 171.426 65.3146C174.157 66.5712 176.845 68.6843 179.357 71.5969C184.438 77.485 188.027 85.8176 189.718 94.5207C191.41 103.223 191.204 112.293 188.7 119.654C187.461 123.296 185.76 126.262 183.698 128.45C181.626 130.65 179.189 132.063 176.491 132.588C173.791 133.112 171.003 132.715 168.258 131.451C165.527 130.195 162.838 128.081 160.326 125.169C150.167 113.394 145.976 91.8349 150.985 77.112Z" fill="#0A0A3B"/>
<path d="M151.451 101.959L151.255 101.997L151.255 101.997L151.451 101.959ZM161.482 124.16L161.633 124.03L161.633 124.029L161.482 124.16ZM168.789 130.002L168.873 129.82L168.873 129.82L168.789 130.002ZM176.196 131.075L176.234 131.271L176.234 131.271L176.196 131.075ZM182.663 127.305L182.516 127.169L182.516 127.169L182.663 127.305ZM187.252 119.151L187.441 119.216L187.441 119.216L187.252 119.151ZM178.202 72.6055L178.05 72.7361L178.05 72.7361L178.202 72.6055ZM170.894 66.7649L170.809 66.946L170.809 66.946L170.894 66.7649ZM163.488 65.6918L163.526 65.8881L163.526 65.8881L163.488 65.6918ZM157.022 69.4609L156.875 69.3247L156.875 69.3248L157.022 69.4609ZM152.433 77.6142L152.244 77.5498L152.244 77.5498L152.433 77.6142ZM150.985 77.112L151.174 77.1765L151.174 77.1764L150.985 77.112ZM155.985 68.3164L156.131 68.4536L156.131 68.4535L155.985 68.3164ZM163.193 64.1786L163.231 64.3749L163.231 64.3749L163.193 64.1786ZM171.426 65.3146L171.342 65.4962L171.342 65.4962L171.426 65.3146ZM179.357 71.5969L179.206 71.7276L179.206 71.7276L179.357 71.5969ZM189.718 94.5207L189.522 94.5588L189.522 94.5588L189.718 94.5207ZM188.7 119.654L188.511 119.589L188.511 119.589L188.7 119.654ZM183.698 128.45L183.553 128.313L183.553 128.313L183.698 128.45ZM176.491 132.588L176.529 132.784L176.529 132.784L176.491 132.588ZM168.258 131.451L168.341 131.269L168.341 131.269L168.258 131.451ZM160.326 125.169L160.477 125.038L160.477 125.038L160.326 125.169ZM151.255 101.997C152.898 110.449 156.382 118.556 161.33 124.291L161.633 124.029C156.742 118.36 153.281 110.323 151.648 101.92L151.255 101.997ZM161.33 124.291C163.674 127.009 166.171 128.996 168.704 130.183L168.873 129.82C166.403 128.663 163.95 126.716 161.633 124.03L161.33 124.291ZM168.704 130.183C171.221 131.362 173.773 131.749 176.234 131.271L176.158 130.878C173.791 131.338 171.325 130.969 168.873 129.82L168.704 130.183ZM176.234 131.271C178.695 130.792 180.917 129.478 182.809 127.441L182.516 127.169C180.673 129.153 178.524 130.418 176.158 130.878L176.234 131.271ZM182.809 127.441C184.713 125.393 186.284 122.615 187.441 119.216L187.062 119.087C185.919 122.446 184.373 125.171 182.516 127.169L182.809 127.441ZM187.441 119.216C189.879 112.044 190.074 103.222 188.431 94.7687C186.788 86.3157 183.302 78.21 178.353 72.4748L178.05 72.7361C182.942 78.4059 186.405 86.442 188.038 94.8451C189.672 103.248 189.472 111.997 187.062 119.087L187.441 119.216ZM178.353 72.4748C176.009 69.757 173.512 67.7701 170.979 66.5838L170.809 66.946C173.279 68.103 175.734 70.0501 178.05 72.7361L178.353 72.4748ZM170.979 66.5838C168.462 65.4045 165.91 65.0172 163.449 65.4955L163.526 65.8881C165.891 65.4283 168.357 65.7972 170.809 66.946L170.979 66.5838ZM163.449 65.4955C160.988 65.9737 158.767 67.289 156.875 69.3247L157.168 69.597C159.011 67.6139 161.159 66.3479 163.526 65.8881L163.449 65.4955ZM156.875 69.3248C154.971 71.374 153.4 74.1517 152.244 77.5498L152.623 77.6786C153.766 74.3202 155.311 71.5956 157.168 69.597L156.875 69.3248ZM152.244 77.5498C149.805 84.7211 149.612 93.5424 151.255 101.997L151.648 101.92C150.014 93.5159 150.212 84.768 152.623 77.6786L152.244 77.5498ZM151.174 77.1764C152.405 73.5554 154.093 70.6153 156.131 68.4536L155.84 68.1792C153.754 70.3916 152.04 73.3854 150.795 77.0477L151.174 77.1764ZM156.131 68.4535C158.178 66.2803 160.578 64.8902 163.231 64.3749L163.155 63.9822C160.41 64.5154 157.937 65.9529 155.839 68.1793L156.131 68.4535ZM163.231 64.3749C165.884 63.8588 168.63 64.2481 171.342 65.4962L171.51 65.1329C168.731 63.8542 165.9 63.4482 163.155 63.9822L163.231 64.3749ZM171.342 65.4962C174.042 66.7383 176.708 68.8314 179.206 71.7276L179.509 71.4663C176.982 68.5372 174.272 66.404 171.51 65.1329L171.342 65.4962ZM179.206 71.7276C184.259 77.583 187.835 85.8808 189.522 94.5588L189.915 94.4825C188.218 85.7545 184.618 77.3871 179.509 71.4663L179.206 71.7276ZM189.522 94.5588C191.209 103.236 191.001 112.269 188.511 119.589L188.89 119.718C191.407 112.316 191.611 103.21 189.914 94.4825L189.522 94.5588ZM188.511 119.589C187.279 123.211 185.59 126.15 183.553 128.313L183.844 128.587C185.929 126.374 187.644 123.381 188.89 119.718L188.511 119.589ZM183.553 128.313C181.506 130.486 179.105 131.875 176.453 132.392L176.529 132.784C179.273 132.25 181.747 130.814 183.844 128.587L183.553 128.313ZM176.453 132.392C173.799 132.907 171.053 132.518 168.341 131.269L168.174 131.633C170.952 132.911 173.783 133.317 176.529 132.784L176.453 132.392ZM168.341 131.269C165.642 130.028 162.976 127.934 160.477 125.038L160.175 125.299C162.701 128.228 165.412 130.362 168.174 131.633L168.341 131.269ZM160.477 125.038C155.426 119.183 151.85 110.885 150.164 102.208C148.477 93.5308 148.684 84.497 151.174 77.1765L150.795 77.0476C148.277 84.45 148.075 93.5572 149.771 102.284C151.467 111.011 155.067 119.379 160.175 125.299L160.477 125.038Z" fill="#0A0A3B"/>
<path fill-rule="evenodd" clip-rule="evenodd" d="M154.351 80.8979C158.601 68.4028 169.035 66.3747 177.656 76.3675C186.277 86.3612 189.821 104.593 185.571 117.088C181.321 129.582 170.887 131.611 162.267 121.618C153.645 111.623 150.101 93.3929 154.351 80.8979Z" fill="#A3A3A3"/>
<path fill-rule="evenodd" clip-rule="evenodd" d="M167.613 114.195C173.297 120.784 179.767 122.144 184.734 118.729C185.057 118.011 185.357 117.252 185.632 116.445C189.881 103.951 186.338 85.7201 177.717 75.7256C172.033 69.1382 165.563 67.7762 160.596 71.1918C160.272 71.9115 159.972 72.6711 159.699 73.4766C155.449 85.9708 158.993 104.202 167.613 114.195Z" fill="#DFDFDF"/>
<path fill-rule="evenodd" clip-rule="evenodd" d="M186.698 95.1074C188.145 102.552 187.97 110.311 185.828 116.61C183.725 122.794 180.063 126.687 175.516 127.57C170.969 128.454 166.115 126.217 161.848 121.271C153.158 111.197 149.573 92.7539 153.857 80.1577C155.96 73.9739 159.622 70.0808 164.17 69.1971C168.717 68.3135 173.57 70.5506 177.837 75.4965C182.182 80.5324 185.251 87.6627 186.698 95.1074ZM153.756 101.51C155.176 108.813 158.184 115.806 162.447 120.747C166.52 125.466 171.107 127.611 175.363 126.784C179.62 125.957 183.069 122.249 185.077 116.348C189.278 103.994 185.764 85.9031 177.238 76.0207C173.166 71.3 168.578 69.1564 164.323 69.9839C160.066 70.8106 156.616 74.5168 154.608 80.4194C152.508 86.5956 152.337 94.2077 153.756 101.51Z" fill="#0A0A3B"/>
<path fill-rule="evenodd" clip-rule="evenodd" d="M165.652 120.328C157.03 110.333 153.487 92.102 157.737 79.6078C159.54 74.3068 162.456 70.8946 165.875 69.4816C165.906 69.468 165.895 69.4196 165.861 69.4204C160.976 69.5445 156.625 73.2558 154.232 80.2884C149.983 92.7835 153.526 111.015 162.147 121.009C167 126.633 172.425 128.444 177.001 126.73C177.032 126.716 177.025 126.669 176.991 126.668C173.291 126.636 169.31 124.567 165.652 120.328Z" fill="#999A96"/>
<path fill-rule="evenodd" clip-rule="evenodd" d="M166.352 69.6873L166.028 69.8505C162.561 71.2855 159.825 74.7037 158.113 79.7388C153.912 92.0945 157.429 110.185 165.952 120.065L165.652 120.328L165.952 120.065C169.425 124.09 173.242 126.236 176.992 126.267L177.325 126.271L177.413 126.626L177.467 126.956L177.139 127.105C172.214 128.952 166.639 126.825 161.848 121.271C153.157 111.197 149.572 92.7538 153.857 80.1577C156.218 73.2134 160.59 69.1529 165.848 69.0203L166.178 69.0127L166.352 69.6873ZM153.756 101.51C155.175 108.813 158.183 115.806 162.447 120.747C166.377 125.303 170.822 127.45 174.919 126.854C171.625 126.201 168.353 124.065 165.353 120.589C156.662 110.516 153.077 92.0724 157.362 79.4762C158.84 75.1277 161.073 71.9253 163.883 70.085C159.86 71.0672 156.546 74.7232 154.608 80.4193C152.507 86.5955 152.337 94.2076 153.756 101.51Z" fill="#0A0A3B"/>
<path fill-rule="evenodd" clip-rule="evenodd" d="M166.318 100.215C166.547 101.271 159.477 104.843 151.656 108.472C143.836 112.1 143.642 123.062 133.749 128.07C127.983 130.989 116.346 135.882 99.4958 141.369C94.2305 143.084 80.0718 139.96 80.0718 146.037C80.0718 152.115 92.7368 144.981 93.7199 148.446C94.0385 149.569 87.1571 149.569 87.1571 153.223C87.1571 156.876 94.4693 149.299 95.8228 153.223C99.4941 163.862 68.768 163.862 71.2779 179.261C71.9253 183.233 89.4291 174.227 85.9863 182.667C84.3889 186.583 92.8498 193.115 101.634 191.575C110.418 190.034 111.535 182.07 113.207 181.475C114.494 181.017 116.338 179.419 117.968 182.516C119.6 185.614 107.483 200.521 114.079 199.458C120.675 198.397 122.228 181.378 126.894 180.42C132.541 179.261 128.151 186.583 131.794 186.583C136.774 186.583 138.375 164.01 143.516 161.048C154.091 154.956 174.524 152.444 177.053 150.954C181.162 148.533 177.919 141.564 177.053 135.043C176.543 131.207 177.981 127.428 181.369 123.707C183.402 120.914 184.763 118.504 185.452 116.479C189.701 103.982 186.158 85.7522 177.537 75.7585C175.442 73.3294 173.238 71.6156 171.043 70.585C169.393 72.3633 167.994 74.7772 166.96 77.8147C164.729 84.3749 164.646 92.5155 166.318 100.215Z" fill="#EDEDEF"/>
<path fill-rule="evenodd" clip-rule="evenodd" d="M166.318 100.215C166.547 101.271 159.477 104.843 151.656 108.472C143.836 112.1 143.642 123.062 133.749 128.07C127.983 130.989 116.346 135.882 99.4958 141.369C94.2305 143.084 80.0718 139.96 80.0718 146.037C80.0718 152.115 92.7368 144.981 93.7199 148.446C94.0385 149.569 87.1571 149.569 87.1571 153.223C87.1571 156.876 94.4693 149.299 95.8228 153.223C99.4941 163.862 68.768 163.862 71.2779 179.261C71.9253 183.233 89.4291 174.227 85.9863 182.667C84.3889 186.583 92.8498 193.115 101.634 191.575C110.418 190.034 111.535 182.07 113.207 181.475C114.494 181.017 116.338 179.419 117.968 182.516C119.6 185.614 107.483 200.521 114.079 199.458C120.675 198.397 122.228 181.378 126.894 180.42C132.541 179.261 128.151 186.583 131.794 186.583C136.774 186.583 138.375 164.01 143.516 161.048C154.091 154.956 174.524 152.444 177.053 150.954C181.162 148.533 177.919 141.564 177.053 135.043C176.543 131.207 177.981 127.428 181.369 123.707C183.402 120.914 184.763 118.504 185.452 116.479C189.701 103.982 186.158 85.7522 177.537 75.7585C175.442 73.3294 173.238 71.6156 171.043 70.585C169.393 72.3633 167.994 74.7772 166.96 77.8147C164.729 84.3749 164.646 92.5155 166.318 100.215Z" stroke="#0A0A3B"/>
<path fill-rule="evenodd" clip-rule="evenodd" d="M166.979 100.751C157.118 105.815 150.872 110.132 148.239 113.699C140.711 123.905 140.168 125.25 134.599 128.07C128.833 130.989 119.077 137.056 102.227 142.542C96.9617 144.256 80.9219 143.501 80.9219 146.037C80.9219 148.573 95.2259 142.048 96.4281 147.436C96.6822 148.573 88.3912 150.298 88.3912 152.421C88.3912 154.544 99.8913 147.752 101.245 151.676C104.647 161.537 100.696 162.138 102.806 163.502C104.915 164.867 109.241 145.962 111.912 143.736C113.843 142.128 121.763 136.728 125.326 136.728C128.888 136.728 117.295 145.852 119.832 148.445C122.37 151.038 142.115 147.436 147.314 134.848C149.111 130.496 151.794 117.054 154.311 112.07C154.879 110.944 159.102 107.171 166.979 100.751Z" fill="#A3A3A3"/>
<path fill-rule="evenodd" clip-rule="evenodd" d="M172.665 107.446C173.91 111.541 179.861 120.149 176.137 121.343C172.411 122.537 164.202 138.627 154.311 143.636C153.031 144.284 143.561 148.576 135.876 156.16C132.67 159.324 133.384 165.547 129.366 168.348C126.832 170.114 118.907 167.546 116.553 169.221C108.367 175.043 107.462 181.023 99.1066 181.023C91.0399 181.023 91.0399 174.871 87.6931 174.871C75.5787 174.871 72.0306 176.244 71.7196 179.15C71.3457 182.629 86.7738 174.479 86.9437 181.023C86.993 182.886 85.4203 184.861 87.6931 186.789C90.3806 189.067 95.5287 191.302 99.9316 191.302C108.059 191.302 111.187 181.618 112.859 181.023C114.146 180.565 116.809 178.769 118.514 182.353C120.218 185.937 109.318 198.665 113.207 199.069C117.096 199.475 121.82 177.045 126.554 177.045C133.98 177.045 128.303 185.959 131.944 185.959C136.924 185.959 137.95 163.697 143.091 160.735C153.666 154.643 174.142 152.151 176.671 150.66C180.781 148.239 177.239 141.407 176.671 134.848C176.353 131.177 177.417 127.813 179.861 124.758C182.485 121.337 184.142 118.614 184.831 116.589C189.08 104.092 185.673 85.8126 177.052 75.8198C175.397 77.0833 172.919 78.3968 170.688 84.9562C168.457 91.5164 170.369 99.8966 172.665 107.446Z" fill="#A3A3A3"/>
<defs>
<linearGradient id="paint0_linear_12192_12137" x1="184.904" y1="73.8185" x2="187.591" y2="76.2588" gradientUnits="userSpaceOnUse">
<stop stop-color="#F48C8A"/>
<stop offset="1" stop-color="#F2649E"/>
</linearGradient>
</defs>
</svg>
