<svg width="324" height="239" viewBox="0 0 324 239" fill="none" xmlns="http://www.w3.org/2000/svg">
<path d="M99.0747 177.653L92.251 173.862V75.2973L163.521 46.5012L170.345 50.2922" fill="white"/>
<path d="M99.0747 177.653L92.251 173.862V75.2973L163.521 46.5012L170.345 50.2922" stroke="#131318" stroke-miterlimit="10"/>
<path d="M170.344 148.857L99.0742 177.653V79.0883L170.344 50.2922V148.857Z" fill="white" stroke="#131318" stroke-linejoin="round"/>
<path d="M92.251 75.2974L99.0747 79.0883" stroke="#131318" stroke-linejoin="round"/>
<path d="M117.271 140.039L111.205 142.488V125.808L117.271 123.359V140.039Z" fill="#131318"/>
<path d="M127.127 136.059L121.062 138.508V114.246L127.127 111.797V136.059Z" fill="#131318"/>
<path d="M136.984 132.078L130.918 134.527V114.056L136.984 111.607V132.078Z" fill="#131318"/>
<path d="M146.84 128.09L140.774 130.547V121.448L146.84 118.992V128.09Z" fill="#131318"/>
<path d="M156.696 124.11L150.631 126.559V102.297L156.696 99.8476V124.11Z" fill="#131318"/>
<path d="M161.246 123.791L106.656 145.847V142.814L161.246 120.759V123.791Z" fill="#131318"/>
<path d="M125.042 109.985C124.655 110.144 124.269 110.151 123.973 109.977C123.381 109.621 123.381 108.665 123.973 107.831L133.45 94.5251C133.731 94.1233 134.117 93.8124 134.519 93.6456L163.52 81.9316C164.354 81.5904 165.037 81.9998 165.037 82.8338C165.037 83.6678 164.354 84.6231 163.52 84.9643L135.149 96.4282L126.119 109.113C125.823 109.53 125.436 109.833 125.049 109.992L125.042 109.985Z" fill="#F47994"/>
<path d="M145.324 87.762L134.709 92.0534V89.0206L145.324 84.7292V87.762Z" fill="#F47994"/>
<path d="M155.18 83.7815L148.356 86.5338V83.501L155.18 80.7488V83.7815Z" fill="#F47994"/>
<path d="M162.004 81.0217L158.213 82.5533V79.5205L162.004 77.989V81.0217Z" fill="#F47994"/>
<path d="M142.291 84.4412L134.709 87.5042V84.4715L142.291 81.4084V84.4412Z" fill="#F47994"/>
<path d="M155.18 79.2324L145.323 83.2129V80.1802L155.18 76.1996V79.2324Z" fill="#F47994"/>
<path d="M140.775 80.4985L134.709 82.9551V79.9223L140.775 77.4658V80.4985Z" fill="#F47994"/>
<path d="M151.39 76.2148L143.808 79.2779V76.2451L151.39 73.182V76.2148Z" fill="#F47994"/>
<path d="M162.004 71.9234L154.422 74.9865V71.9537L162.004 68.8906V71.9234Z" fill="#F47994"/>
<path opacity="0.27" d="M115.133 171.436L170.481 149.077V58.4579L115.133 80.8245V171.436Z" fill="#131318"/>
<path d="M129.402 185.235L122.578 181.444V82.8793L193.848 54.0831L200.672 57.8741" fill="white"/>
<path d="M129.402 185.235L122.578 181.444V82.8793L193.848 54.0831L200.672 57.8741" stroke="#131318" stroke-miterlimit="10"/>
<path d="M200.671 156.439L129.401 185.235V86.6702L200.671 57.8741V156.439Z" fill="white" stroke="#131318" stroke-linejoin="round"/>
<path d="M122.578 82.8793L129.402 86.6702" stroke="#131318" stroke-linejoin="round"/>
<path d="M149.115 110.424L138.501 114.716C136.825 115.391 135.468 114.579 135.468 112.911V102.297C135.468 100.621 136.825 98.7179 138.501 98.0355L149.115 93.7442C150.791 93.0694 152.148 93.8806 152.148 95.5487V106.163C152.148 107.839 150.791 109.742 149.115 110.424ZM138.501 101.068V111.683L149.108 107.399V96.7845L138.501 101.076V101.068Z" fill="#131318"/>
<path d="M168.828 102.456L158.213 106.747C156.538 107.422 155.181 106.611 155.181 104.943V94.3279C155.181 92.6523 156.538 90.7493 158.213 90.0669L168.828 85.7755C170.504 85.1008 171.861 85.912 171.861 87.58V98.1947C171.861 99.8703 170.504 101.773 168.828 102.456ZM158.213 93.0997V103.714L168.821 99.4306V88.8159L158.213 93.1073V93.0997Z" fill="#131318"/>
<path d="M149.115 130.137L138.501 134.429C136.825 135.103 135.468 134.292 135.468 132.624V122.01C135.468 120.334 136.825 118.431 138.501 117.748L149.115 113.457C150.791 112.782 152.148 113.594 152.148 115.262V125.876C152.148 127.552 150.791 129.455 149.115 130.137ZM138.501 120.781V131.396L149.108 127.112V116.497L138.501 120.789V120.781Z" fill="#131318"/>
<path d="M177.843 151.89L173.461 153.664C172.771 153.945 172.164 153.717 171.99 153.118L171.004 149.661L169.063 149.638L165.644 153.05C165.053 153.641 164.287 153.854 163.802 153.565L160.701 151.715C160.208 151.42 160.117 150.7 160.465 149.964L162.49 145.726L161.686 144.111L157.835 144.679C157.16 144.778 156.697 144.361 156.697 143.671V139.289C156.697 138.599 157.167 137.803 157.835 137.355L161.686 134.815L162.49 132.548L160.465 129.948C160.109 129.493 160.208 128.697 160.701 128.007L163.802 123.655C164.294 122.965 165.053 122.563 165.644 122.677L169.063 123.321L171.004 121.729L171.99 117.483C172.164 116.74 172.763 116.027 173.461 115.747L177.843 113.973C178.533 113.692 179.14 113.92 179.314 114.519L180.3 117.976L182.241 117.999L185.66 114.587C186.259 113.995 187.017 113.783 187.503 114.071L190.604 115.921C191.096 116.209 191.187 116.937 190.839 117.673L188.814 121.911L189.618 123.526L193.47 122.957C194.144 122.859 194.607 123.276 194.607 123.966V128.348C194.607 129.038 194.137 129.834 193.47 130.281L189.618 132.821L188.814 135.088L190.839 137.689C191.195 138.144 191.096 138.94 190.604 139.63L187.503 143.982C187.01 144.672 186.252 145.074 185.66 144.96L182.241 144.316L180.3 145.908L179.314 150.154C179.14 150.897 178.541 151.609 177.843 151.89ZM174.636 150.154L176.668 149.335L177.548 145.536C177.669 145.028 177.995 144.513 178.435 144.149L181.778 141.412C182.218 141.048 182.718 140.881 183.135 140.964L186.199 141.541L187.631 139.524L185.819 137.196C185.577 136.885 185.539 136.4 185.721 135.884L187.108 131.98C187.29 131.464 187.669 130.979 188.132 130.676L191.574 128.401V126.377L188.132 126.885C187.669 126.953 187.29 126.779 187.108 126.407L185.721 123.624C185.539 123.261 185.577 122.745 185.819 122.229L187.631 118.438L186.199 117.582L183.135 120.63C182.726 121.039 182.226 121.274 181.778 121.274L178.435 121.244C177.995 121.244 177.661 120.994 177.548 120.577L176.668 117.483L174.636 118.302L173.757 122.101C173.635 122.608 173.309 123.124 172.869 123.488L169.526 126.225C169.086 126.589 168.586 126.756 168.169 126.672L165.106 126.096L163.673 128.113L165.485 130.441C165.727 130.751 165.765 131.237 165.583 131.752L164.196 135.657C164.014 136.173 163.635 136.658 163.172 136.961L159.73 139.236V141.26L163.172 140.752C163.635 140.684 164.014 140.858 164.196 141.23L165.583 144.012C165.765 144.376 165.727 144.892 165.485 145.407L163.673 149.198L165.106 150.055L168.169 147.007C168.578 146.598 169.079 146.363 169.526 146.363L172.869 146.401C173.309 146.401 173.643 146.651 173.757 147.068L174.636 150.161V150.154Z" fill="#131318"/>
<path d="M175.652 142.162C171.049 144.02 167.312 141.791 167.312 137.189C167.312 132.586 171.049 127.34 175.652 125.482C180.254 123.624 183.992 125.854 183.992 130.456C183.992 135.058 180.254 140.305 175.652 142.162ZM175.652 128.515C172.725 129.698 170.344 133.041 170.344 135.968C170.344 138.894 172.725 140.312 175.652 139.13C178.578 137.947 180.959 134.603 180.959 131.676C180.959 128.75 178.578 127.332 175.652 128.515Z" fill="#F37596"/>
<path d="M152.906 146.044L140.775 150.942C139.941 151.283 139.259 150.874 139.259 150.04V137.151C139.259 136.317 139.941 135.361 140.775 135.02C141.609 134.679 142.292 135.088 142.292 135.922V147.295L152.906 143.004C153.74 142.663 154.423 143.072 154.423 143.906C154.423 144.74 153.74 145.695 152.906 146.037V146.044Z" fill="#F47994"/>
<path opacity="0.27" d="M145.324 178.806L200.672 156.439V65.8275L145.324 88.1866V178.806Z" fill="#131318"/>
<path d="M159.73 192.817L152.906 189.026V90.4612L224.176 61.665L231 65.456" fill="white"/>
<path d="M159.73 192.817L152.906 189.026V90.4612L224.176 61.665L231 65.456" stroke="#131318" stroke-miterlimit="10"/>
<path d="M231 164.021L159.73 192.817V94.2521L231 65.456V164.021Z" fill="white" stroke="#131318" stroke-linejoin="round"/>
<path d="M207.497 88.9069L183.234 98.7103V95.6775L207.497 85.8741V88.9069Z" fill="#131318"/>
<path d="M221.144 94.7677L170.345 115.292V112.259L221.144 91.7349V94.7677Z" fill="#A3A3A3"/>
<path d="M221.144 103.866L170.345 124.39V121.358L221.144 100.833V103.866Z" fill="#A3A3A3"/>
<path d="M221.144 112.964L170.345 133.489V130.456L221.144 109.932V112.964Z" fill="#A3A3A3"/>
<path d="M221.144 122.063L170.345 142.587V139.554L221.144 119.03V122.063Z" fill="#A3A3A3"/>
<path d="M221.144 131.161L170.345 151.685V148.652L221.144 128.128V131.161Z" fill="#A3A3A3"/>
<path d="M221.144 140.259L170.345 160.783V157.751L221.144 137.226V140.259Z" fill="#A3A3A3"/>
<path d="M198.398 158.547L170.345 169.882V166.849L198.398 155.514V158.547Z" fill="#A3A3A3"/>
<path d="M213.562 163.794C208.96 165.651 205.222 163.422 205.222 158.82C205.222 154.218 208.96 148.971 213.562 147.113C218.164 145.256 221.902 147.485 221.902 152.087C221.902 156.689 218.164 161.936 213.562 163.794ZM213.562 150.146C210.635 151.329 208.254 154.672 208.254 157.599C208.254 160.526 210.635 161.944 213.562 160.761C216.488 159.578 218.869 156.234 218.869 153.308C218.869 150.381 216.488 148.963 213.562 150.146Z" fill="#F47994"/>
<path d="M152.906 90.4612L159.73 94.2521" stroke="#131318" stroke-linejoin="round"/>
</svg>
