<svg width="324" height="239" viewBox="0 0 324 239" fill="none" xmlns="http://www.w3.org/2000/svg">
<g clip-path="url(#clip0_12192_11472)">
<path d="M48.411 156.059L43.168 153.146V77.413L97.9287 55.2874L103.172 58.2002" fill="white"/>
<path d="M48.411 156.059L43.168 153.146V77.413L97.9287 55.2874L103.172 58.2002" stroke="#131318" stroke-miterlimit="10"/>
<path d="M103.172 133.933L48.4111 156.059V80.3259L103.172 58.2002V133.933Z" fill="white" stroke="#131318" stroke-linejoin="round"/>
<path d="M43.168 77.4131L48.411 80.3259" stroke="#131318" stroke-linejoin="round"/>
<path d="M60.6447 105.79L58.3145 106.728V88.6682L64.1401 86.3147V88.6449L60.6447 90.0606V105.79Z" fill="#A3A3A3"/>
<path d="M85.1124 95.321C84.4716 95.5832 83.9473 95.2686 83.9473 94.6278V84.1417C83.9473 83.5008 84.4716 82.7668 85.1124 82.5047C85.7532 82.2425 86.2775 82.5571 86.2775 83.1979V93.684C86.2775 94.3248 85.7532 95.0589 85.1124 95.321Z" fill="#F47994"/>
<path d="M76.3739 136.718L59.4796 143.546C58.8388 143.808 58.3145 143.493 58.3145 142.852V116.637C58.3145 115.996 58.8388 115.262 59.4796 115C60.1204 114.738 60.6447 115.052 60.6447 115.693V140.743L76.3739 134.388C77.0147 134.126 77.539 134.44 77.539 135.081C77.539 135.722 77.0147 136.456 76.3739 136.718Z" fill="#F47994"/>
<path d="M76.3739 125.067L59.4796 131.894C58.8388 132.156 58.3145 131.842 58.3145 131.201C58.3145 130.56 58.8388 129.826 59.4796 129.564L76.3739 122.736C77.0147 122.474 77.539 122.789 77.539 123.43C77.539 124.07 77.0147 124.804 76.3739 125.067Z" fill="#F47994"/>
<path d="M59.7712 117.208C56.3982 118.571 53.6543 116.934 53.6543 113.561C53.6543 110.188 56.3982 106.337 59.7712 104.974C63.1442 103.611 65.8881 105.248 65.8881 108.621C65.8881 111.994 63.1442 115.845 59.7712 117.208ZM59.7712 107.304C57.6856 108.149 55.9845 110.532 55.9845 112.623C55.9845 114.715 57.6856 115.722 59.7712 114.878C61.8568 114.033 63.5578 111.65 63.5578 109.559C63.5578 107.468 61.8568 106.46 59.7712 107.304Z" fill="#131318"/>
<path d="M89.7734 82.9533L64.1407 93.3112C63.4999 93.5734 62.9756 93.2588 62.9756 92.618V82.7144C62.9756 82.0736 63.4999 81.3396 64.1407 81.0774L89.7734 70.7195C90.4142 70.4574 90.9385 70.7719 90.9385 71.4128V81.3163C90.9385 81.9571 90.4142 82.6911 89.7734 82.9533ZM65.3058 90.5091L88.6083 81.0949V73.5216L65.3058 82.9358V90.5091Z" fill="#F37596"/>
<path d="M97.9291 98.2979L79.2871 105.83V95.3443L97.9291 87.8118V98.2979ZM81.6174 102.556L95.5988 96.9056V91.0799L81.6174 96.7308V102.556Z" fill="#A3A3A3"/>
<path d="M90.3556 122.911L76.3741 128.562C75.7333 128.824 75.209 128.51 75.209 127.869V120.295C75.209 119.655 75.7333 118.921 76.3741 118.658L90.3556 113.008C90.9964 112.745 91.5207 113.06 91.5207 113.701V121.274C91.5207 121.915 90.9964 122.649 90.3556 122.911ZM77.5392 125.76L89.1905 121.053V115.81L77.5392 120.517V125.76Z" fill="#A3A3A3"/>
<path d="M90.3556 134.562L76.3741 140.213C75.7333 140.476 75.209 140.161 75.209 139.52V131.947C75.209 131.306 75.7333 130.572 76.3741 130.31L90.3556 124.659C90.9964 124.397 91.5207 124.711 91.5207 125.352V132.926C91.5207 133.566 90.9964 134.3 90.3556 134.562ZM77.5392 137.411L89.1905 132.704V127.461L77.5392 132.168V137.411Z" fill="#F37596"/>
<path opacity="0.27" d="M60.8545 151.451L103.381 134.271V64.6433L60.8545 81.8289V151.451Z" fill="#131318"/>
<path d="M71.7138 161.885L66.4707 158.972V83.2387L121.231 61.113L126.475 64.0258" fill="white"/>
<path d="M71.7138 161.885L66.4707 158.972V83.2387L121.231 61.113L126.475 64.0258" stroke="#131318" stroke-miterlimit="10"/>
<path d="M126.475 139.759L71.7139 161.885V86.1516L126.475 64.0259V139.759Z" fill="white" stroke="#131318" stroke-linejoin="round"/>
<path d="M66.4707 83.2388L71.7138 86.1516" stroke="#131318" stroke-linejoin="round"/>
<path d="M85.6947 132.984L81.0342 134.865V122.049L85.6947 120.167V132.984Z" fill="#131318"/>
<path d="M93.2679 129.925L88.6074 131.807V113.165L93.2679 111.283V129.925Z" fill="#131318"/>
<path d="M100.841 126.867L96.1807 128.749V113.019L100.841 111.138V126.867Z" fill="#131318"/>
<path d="M108.414 123.803L103.754 125.69V118.699L108.414 116.812V123.803Z" fill="#131318"/>
<path d="M115.988 120.744L111.327 122.626V103.984L115.988 102.102V120.744Z" fill="#131318"/>
<path d="M119.483 120.499L77.5391 137.446V135.116L119.483 118.169V120.499Z" fill="#131318"/>
<path d="M91.6661 109.891C91.369 110.013 91.0719 110.019 90.8447 109.885C90.3903 109.611 90.3903 108.877 90.8447 108.237L98.1267 98.0126C98.3423 97.7038 98.6394 97.4649 98.9481 97.3368L121.231 88.3362C121.872 88.0741 122.396 88.3886 122.396 89.0295C122.396 89.6703 121.872 90.4043 121.231 90.6665L99.4317 99.4748L92.4934 109.221C92.2662 109.541 91.9691 109.774 91.6719 109.897L91.6661 109.891Z" fill="#F47994"/>
<path d="M107.25 92.8161L99.0938 96.1134V93.7831L107.25 90.4858V92.8161Z" fill="#F47994"/>
<path d="M114.823 89.7577L109.58 91.8724V89.5422L114.823 87.4275V89.7577Z" fill="#F47994"/>
<path d="M120.066 87.6371L117.153 88.8139V86.4837L120.066 85.3069V87.6371Z" fill="#F47994"/>
<path d="M104.919 90.2646L99.0938 92.6181V90.2879L104.919 87.9343V90.2646Z" fill="#F47994"/>
<path d="M114.823 86.2624L107.25 89.3208V86.9906L114.823 83.9321V86.2624Z" fill="#F47994"/>
<path d="M103.754 87.2353L99.0938 89.1228V86.7925L103.754 84.905V87.2353Z" fill="#F47994"/>
<path d="M111.911 83.9438L106.085 86.2973V83.9671L111.911 81.6135V83.9438Z" fill="#F47994"/>
<path d="M120.066 80.6464L114.24 83V80.6697L120.066 78.3162V80.6464Z" fill="#F47994"/>
<path opacity="0.27" d="M84.0518 157.108L126.579 139.928V70.3L84.0518 87.4856V157.108Z" fill="#131318"/>
<path d="M95.0165 167.71L89.7734 164.797V89.0644L144.534 66.9387L149.777 69.8515" fill="white"/>
<path d="M95.0165 167.71L89.7734 164.797V89.0644L144.534 66.9387L149.777 69.8515" stroke="#131318" stroke-miterlimit="10"/>
<path d="M149.777 145.585L95.0166 167.71V91.9772L149.777 69.8516V145.585Z" fill="white" stroke="#131318" stroke-linejoin="round"/>
<path d="M89.7734 89.0645L95.0165 91.9773" stroke="#131318" stroke-linejoin="round"/>
<path d="M110.163 110.229L102.007 113.526C100.72 114.045 99.6768 113.421 99.6768 112.14V103.984C99.6768 102.697 100.72 101.234 102.007 100.71L110.163 97.4127C111.45 96.8942 112.493 97.5175 112.493 98.7992V106.955C112.493 108.242 111.45 109.705 110.163 110.229ZM102.007 103.04V111.196L110.157 107.905V99.7487L102.007 103.046V103.04Z" fill="#131318"/>
<path d="M125.309 104.106L117.153 107.404C115.866 107.922 114.823 107.299 114.823 106.017V97.8612C114.823 96.5737 115.866 95.1115 117.153 94.5872L125.309 91.2899C126.597 90.7714 127.64 91.3947 127.64 92.6764V100.832C127.64 102.12 126.597 103.582 125.309 104.106ZM117.153 96.9174V105.073L125.304 101.782V93.6259L117.153 96.9232V96.9174Z" fill="#131318"/>
<path d="M110.163 125.376L102.007 128.673C100.72 129.191 99.6768 128.568 99.6768 127.286V119.13C99.6768 117.843 100.72 116.381 102.007 115.856L110.163 112.559C111.45 112.041 112.493 112.664 112.493 113.946V122.102C112.493 123.389 111.45 124.851 110.163 125.376ZM102.007 118.187V126.343L110.157 123.051V114.895L102.007 118.193V118.187Z" fill="#131318"/>
<path d="M132.236 142.089L128.869 143.452C128.339 143.668 127.873 143.493 127.739 143.033L126.981 140.377L125.49 140.359L122.863 142.981C122.408 143.435 121.82 143.598 121.447 143.377L119.064 141.955C118.686 141.728 118.616 141.175 118.884 140.61L120.439 137.353L119.822 136.112L116.862 136.549C116.344 136.625 115.988 136.304 115.988 135.774V132.407C115.988 131.877 116.349 131.265 116.862 130.922L119.822 128.97L120.439 127.228L118.884 125.23C118.61 124.88 118.686 124.269 119.064 123.739L121.447 120.395C121.826 119.865 122.408 119.556 122.863 119.643L125.49 120.138L126.981 118.915L127.739 115.653C127.873 115.082 128.333 114.534 128.869 114.319L132.236 112.955C132.766 112.74 133.232 112.915 133.366 113.375L134.123 116.031L135.615 116.049L138.242 113.427C138.702 112.973 139.285 112.81 139.658 113.031L142.04 114.453C142.419 114.674 142.489 115.233 142.221 115.798L140.666 119.055L141.283 120.296L144.243 119.859C144.761 119.783 145.116 120.103 145.116 120.634V124.001C145.116 124.531 144.755 125.143 144.243 125.486L141.283 127.438L140.666 129.18L142.221 131.178C142.495 131.527 142.419 132.139 142.04 132.669L139.658 136.013C139.279 136.543 138.697 136.852 138.242 136.765L135.615 136.269L134.123 137.493L133.366 140.755C133.232 141.326 132.772 141.874 132.236 142.089ZM129.772 140.755L131.333 140.126L132.009 137.207C132.102 136.817 132.352 136.421 132.69 136.141L135.259 134.038C135.597 133.759 135.982 133.63 136.302 133.695L138.656 134.137L139.757 132.588L138.364 130.799C138.178 130.56 138.149 130.188 138.289 129.791L139.355 126.791C139.495 126.395 139.786 126.022 140.141 125.789L142.786 124.042V122.486L140.141 122.876C139.786 122.929 139.495 122.795 139.355 122.509L138.289 120.371C138.149 120.092 138.178 119.696 138.364 119.299L139.757 116.387L138.656 115.728L136.302 118.07C135.988 118.385 135.603 118.565 135.259 118.565L132.69 118.542C132.352 118.542 132.096 118.35 132.009 118.029L131.333 115.653L129.772 116.282L129.096 119.2C129.003 119.591 128.752 119.987 128.414 120.267L125.845 122.37C125.507 122.649 125.123 122.777 124.802 122.713L122.449 122.271L121.348 123.82L122.74 125.609C122.927 125.847 122.956 126.22 122.816 126.616L121.75 129.617C121.61 130.013 121.319 130.386 120.963 130.619L118.319 132.366V133.922L120.963 133.531C121.319 133.479 121.61 133.613 121.75 133.898L122.816 136.036C122.956 136.316 122.927 136.712 122.74 137.108L121.348 140.021L122.449 140.679L124.802 138.338C125.117 138.023 125.502 137.842 125.845 137.842L128.414 137.872C128.752 137.872 129.009 138.064 129.096 138.384L129.772 140.761V140.755Z" fill="#131318"/>
<path d="M130.553 134.615C127.017 136.042 124.145 134.33 124.145 130.793C124.145 127.257 127.017 123.226 130.553 121.799C134.089 120.371 136.961 122.084 136.961 125.62C136.961 129.156 134.089 133.188 130.553 134.615ZM130.553 124.129C128.304 125.038 126.475 127.607 126.475 129.855C126.475 132.104 128.304 133.194 130.553 132.285C132.801 131.376 134.631 128.807 134.631 126.558C134.631 124.31 132.801 123.22 130.553 124.129Z" fill="#F37596"/>
<path d="M113.076 137.598L103.755 141.361C103.114 141.623 102.59 141.309 102.59 140.668V130.764C102.59 130.123 103.114 129.389 103.755 129.127C104.396 128.865 104.92 129.18 104.92 129.82V138.559L113.076 135.262C113.717 134.999 114.241 135.314 114.241 135.955C114.241 136.596 113.717 137.33 113.076 137.592V137.598Z" fill="#F47994"/>
<path opacity="0.27" d="M107.25 162.77L149.777 145.585V75.9626L107.25 93.1424V162.77Z" fill="#131318"/>
<path d="M118.318 173.536L113.075 170.623V94.8901L167.836 72.7644L173.079 75.6772" fill="white"/>
<path d="M118.318 173.536L113.075 170.623V94.8901L167.836 72.7644L173.079 75.6772" stroke="#131318" stroke-miterlimit="10"/>
<path d="M173.079 151.41L118.318 173.536V97.8029L173.079 75.6772V151.41Z" fill="white" stroke="#131318" stroke-linejoin="round"/>
<path d="M155.02 93.6957L136.378 101.228V98.898L155.02 91.3655V93.6957Z" fill="#131318"/>
<path d="M165.506 98.1991L126.475 113.969V111.639L165.506 95.8689V98.1991Z" fill="#A3A3A3"/>
<path d="M165.506 105.19L126.475 120.96V118.63L165.506 102.86V105.19Z" fill="#A3A3A3"/>
<path d="M165.506 112.181L126.475 127.951V125.62L165.506 109.85V112.181Z" fill="#A3A3A3"/>
<path d="M165.506 119.171L126.475 134.941V132.611L165.506 116.841V119.171Z" fill="#A3A3A3"/>
<path d="M165.506 126.162L126.475 141.932V139.602L165.506 123.832V126.162Z" fill="#A3A3A3"/>
<path d="M165.506 133.153L126.475 148.923V146.592L165.506 130.823V133.153Z" fill="#A3A3A3"/>
<path d="M148.029 147.204L126.475 155.913V153.583L148.029 144.874V147.204Z" fill="#A3A3A3"/>
<path d="M159.681 151.235C156.144 152.663 153.272 150.95 153.272 147.414C153.272 143.878 156.144 139.846 159.681 138.419C163.217 136.992 166.089 138.704 166.089 142.241C166.089 145.777 163.217 149.808 159.681 151.235ZM159.681 140.749C157.432 141.658 155.603 144.227 155.603 146.476C155.603 148.725 157.432 149.814 159.681 148.905C161.929 147.996 163.759 145.427 163.759 143.179C163.759 140.93 161.929 139.84 159.681 140.749Z" fill="#F47994"/>
<path d="M113.075 94.8901L118.318 97.8029" stroke="#131318" stroke-linejoin="round"/>
</g>
<g clip-path="url(#clip1_12192_11472)">
<path fill-rule="evenodd" clip-rule="evenodd" d="M201.15 106.877C189.474 116.215 182.017 131.275 184.382 141.04C184.529 141.626 184.716 142.144 184.95 142.621C188.182 134.817 194.143 127.131 201.15 121.823V106.877ZM185.129 145.129C184.901 145.129 184.687 145.02 184.534 144.864C183.747 143.937 183.199 142.807 182.865 141.423C180.269 130.731 188.612 114.204 201.471 104.616C201.71 104.439 202.024 104.413 202.292 104.548C202.561 104.684 202.725 104.957 202.725 105.249V122.226C202.725 122.479 202.604 122.703 202.399 122.859C195.063 128.358 188.88 136.474 185.855 144.611C185.763 144.864 185.535 145.062 185.267 145.109C185.221 145.129 185.175 145.129 185.126 145.129H185.129Z" fill="#F47795"/>
<path d="M217.016 66.6625L230.154 74.2488C229.97 74.3487 229.795 74.4715 229.631 74.6092C229.042 75.1028 228.52 75.8386 228.037 76.5317C228.004 76.5797 227.97 76.6275 227.937 76.6752C227.474 77.3423 227.035 77.9736 226.558 78.4527C226.051 78.963 225.574 79.2247 225.07 79.2138L225.066 79.2137C212.118 79.0364 201.551 85.9697 192.87 94.6658C177.17 110.365 169.581 130.14 169.581 152.569C169.581 154.82 170.125 157.227 170.787 159.617C171.021 160.461 171.268 161.299 171.513 162.13C171.97 163.681 172.42 165.207 172.762 166.699C173.285 168.983 173.53 171.093 173.156 172.929C172.791 174.718 171.833 176.276 169.881 177.494L156.493 169.76C156.447 169.725 156.347 169.636 156.195 169.491C156.038 169.341 155.852 169.154 155.663 168.962C155.41 168.705 155.165 168.451 154.98 168.259C154.89 168.165 154.814 168.086 154.758 168.029C150.818 163.551 148.782 157.677 147.991 151.485C147.2 145.291 147.658 138.814 148.673 133.18L148.673 133.179C151.564 117.036 160.213 99.5089 172.064 86.2223L172.064 86.2219C177.265 80.3774 184.434 74.029 192.357 69.8769C200.269 65.7307 208.872 63.8047 217.016 66.6625Z" fill="#A3A3A3" stroke="#131318"/>
<path fill-rule="evenodd" clip-rule="evenodd" d="M225.07 163.263L210.583 154.896L210.454 154.809L210.321 154.722L210.189 154.635L210.067 154.517L209.942 154.403L209.828 154.316L209.706 154.202L209.593 154.08L209.479 153.963L209.365 153.849L209.258 153.727L209.152 153.587L209.046 153.473L223.528 161.84L223.635 161.954L223.741 162.094L223.847 162.216L223.961 162.329L224.075 162.443L224.189 162.569L224.31 162.682L224.424 162.77L224.55 162.884L224.682 162.971L224.804 163.085L224.937 163.176L225.07 163.263Z" fill="white"/>
<path d="M179.445 165.636L171.472 158.195C179.144 160.838 187.351 157.525 194.535 151.941C202.606 145.668 209.551 136.414 213.322 128.967L213.322 128.967C216.509 122.668 219.587 113.492 220.087 104.794C220.514 97.372 219.065 90.1858 214.079 85.4954C214.679 85.6697 215.316 85.8388 215.98 86.0047C217.538 86.3943 219.276 86.7745 221.045 87.1612C221.781 87.3223 222.523 87.4845 223.259 87.649C225.774 88.2108 228.228 88.8007 230.247 89.4719C231.256 89.8073 232.145 90.1593 232.872 90.5327C233.605 90.9087 234.143 91.2913 234.479 91.6753L234.481 91.6771C237.442 95.0292 238.848 99.7191 239.075 105.143C239.302 110.564 238.348 116.672 236.642 122.797C233.226 135.056 226.825 147.283 221.006 154.081L221.006 154.081C217.269 158.45 210.578 163.444 203.314 166.51C196.037 169.583 188.326 170.665 182.453 167.441L179.445 165.636Z" fill="#A3A3A3" stroke="#131318"/>
<path fill-rule="evenodd" clip-rule="evenodd" d="M225.445 92.1303L210.962 83.7559L210.454 83.5016L209.934 83.2359L209.398 83.0005L223.881 91.3673L224.416 91.6026L224.936 91.8684L225.445 92.1303Z" fill="white"/>
<path d="M225.945 91.8491V91.8414L225.694 91.6971C220.118 88.4828 212.489 88.991 204.19 93.7892C195.896 98.5698 188.414 106.774 183.003 116.134C177.591 125.487 174.243 136.066 174.243 145.649C174.243 155.229 177.598 162.087 183.185 165.328L183.187 165.329C188.775 168.543 196.399 168.035 204.691 163.229C212.993 158.456 220.474 150.244 225.878 140.892L225.878 140.892C231.278 131.539 234.638 120.949 234.638 111.369C234.638 101.936 231.376 95.1377 225.945 91.8491ZM204.69 79.444L204.691 79.4434C216.436 72.6405 226.96 72.0672 234.51 76.4369C242.054 80.8072 246.818 90.1902 246.818 103.758C246.818 110.808 245.525 118.274 243.201 125.702C242.699 127.307 243.793 128.877 245.072 129.614L245.075 129.616L266.441 141.751C266.441 141.751 266.442 141.751 266.442 141.751C268.953 143.197 270.289 146.337 270.288 150.398C270.287 154.442 268.951 159.291 266.258 163.951L266.258 163.951C263.57 168.613 260.036 172.195 256.531 174.221C253.011 176.255 249.621 176.673 247.113 175.229L247.11 175.227L225.736 163.092C225.736 163.092 225.736 163.092 225.735 163.091C224.457 162.354 222.559 162.205 221.425 163.439C216.148 169.18 210.31 174.042 204.19 177.582C192.445 184.374 181.921 184.948 174.371 180.589C166.82 176.219 162.062 166.829 162.062 153.26C162.062 139.695 166.826 124.657 174.553 111.266C182.292 97.883 192.944 86.2074 204.69 79.444Z" fill="#EDEDEF" stroke="#131318"/>
</g>
<defs>
<clipPath id="clip0_12192_11472">
<rect width="132.241" height="120.701" fill="white" transform="translate(42.0029 54)"/>
</clipPath>
<clipPath id="clip1_12192_11472">
<rect width="135.915" height="121.129" fill="white" transform="translate(146.082 63.7957)"/>
</clipPath>
</defs>
</svg>
